<?xml version="1.0" encoding="utf-8"?>
<!-- Generator: Adobe Illustrator 27.5.0, SVG Export Plug-In . SVG Version: 6.00 Build 0)  -->
<svg version="1.1" id="Capa_1" xmlns="http://www.w3.org/2000/svg" xmlns:xlink="http://www.w3.org/1999/xlink" x="0px" y="0px"
	 viewBox="0 0 2388 1885" style="enable-background:new 0 0 2388 1885;" xml:space="preserve">
<rect x="0" y="0.002" style="fill:#FFFFFF;" width="2387.468" height="1884.842"/>
<g>
	<g>
		
			<linearGradient id="SVGID_1_" gradientUnits="userSpaceOnUse" x1="-1056.8918" y1="-3874.9919" x2="-409.3888" y2="-3880.3652" gradientTransform="matrix(0 1 -1 0 -2126.3721 2046.6963)">
			<stop  offset="0" style="stop-color:#414042"/>
			<stop  offset="0.4797" style="stop-color:#242425"/>
			<stop  offset="1" style="stop-color:#000000"/>
		</linearGradient>
		<path style="fill:url(#SVGID_1_);" d="M1301.337,1033.266c0-12.604,10.221-22.836,22.829-22.836h854.464
			c12.608,0,22.829,10.232,22.829,22.836v582.615c0,12.606-10.221,22.831-22.829,22.831h-854.464
			c-12.608,0-22.829-10.225-22.829-22.831V1033.266z"/>
		<path style="fill:#0B0A11;" d="M1344.015,1059.908c0-11.446,8.861-20.733,19.785-20.733h775.207
			c10.924,0,19.781,9.288,19.781,20.733v518.936c0,11.448-8.861,20.74-19.781,20.74H1363.8c-10.931,0-19.785-9.292-19.785-20.74
			V1059.908z"/>
		
			<linearGradient id="SVGID_00000134954116239419033030000002277972995532612740_" gradientUnits="userSpaceOnUse" x1="-987.6692" y1="-3877.77" x2="-466.9648" y2="-3877.77" gradientTransform="matrix(0 1 -1 0 -2126.3721 2046.6963)">
			<stop  offset="0" style="stop-color:#FFFFFF"/>
			<stop  offset="1" style="stop-color:#454547"/>
		</linearGradient>
		<path style="fill:url(#SVGID_00000134954116239419033030000002277972995532612740_);" d="M1364.053,1078.685
			c0-10.859,8.42-19.658,18.779-19.658h737.142c10.368,0,18.768,8.799,18.768,19.658l-0.01,481.382
			c0,10.859-8.39,19.665-18.758,19.665h-737.152c-10.357,0-18.768-8.805-18.768-19.665V1078.685z"/>
		<g>
			
				<linearGradient id="SVGID_00000113354256037311875840000017971071338983037354_" gradientUnits="userSpaceOnUse" x1="-991.1995" y1="-3877.7646" x2="-470.4889" y2="-3877.7646" gradientTransform="matrix(0 1 -1 0 -2126.3721 2046.6963)">
				<stop  offset="0" style="stop-color:#FFFFFF"/>
				<stop  offset="1" style="stop-color:#818386"/>
			</linearGradient>
			<path style="fill:url(#SVGID_00000113354256037311875840000017971071338983037354_);" d="M1364.053,1075.157
				c0-10.855,8.411-19.66,18.768-19.66h737.152c10.368,0,18.758,8.805,18.758,19.66v481.386c0,10.859-8.399,19.664-18.766,19.664
				h-737.144c-10.357,0-18.768-8.805-18.768-19.664V1075.157z"/>
			<rect x="1364.116" y="1204.814" style="fill:#A7A9AC;" width="771.958" height="118.015"/>
			<rect x="1946.001" y="1349.447" style="fill:#FFFFFF;" width="156.993" height="25.981"/>
			<rect x="1946.001" y="1389.157" style="fill:#FFFFFF;" width="156.993" height="25.981"/>
			<rect x="1946.001" y="1425.966" style="fill:#FFFFFF;" width="156.993" height="25.978"/>
			<rect x="1946.001" y="1462.014" style="fill:#FFFFFF;" width="156.993" height="25.984"/>
			<path style="fill:#808285;" d="M1926.863,1166.885c0,3.768-3.048,6.823-6.812,6.823h-38.097c-3.758,0-6.812-3.054-6.812-6.823
				v-23.651c0-3.775,3.054-6.827,6.812-6.827h38.097c3.764,0,6.812,3.052,6.812,6.827V1166.885z"/>
			<path style="fill:#808285;" d="M1985.462,1166.885c0,3.768-3.048,6.823-6.812,6.823h-38.097c-3.753,0-6.812-3.054-6.812-6.823
				v-23.651c0-3.775,3.059-6.827,6.812-6.827h38.097c3.764,0,6.812,3.052,6.812,6.827V1166.885z"/>
			<path style="fill:#808285;" d="M2043.103,1166.885c0,3.768-3.058,6.823-6.822,6.823h-38.086c-3.775,0-6.823-3.054-6.823-6.823
				v-23.651c0-3.775,3.048-6.827,6.823-6.827h38.086c3.764,0,6.822,3.052,6.822,6.827V1166.885z"/>
			<path style="fill:#808285;" d="M2099.282,1166.885c0,3.768-3.054,6.823-6.823,6.823h-38.086c-3.775,0-6.823-3.054-6.823-6.823
				v-23.651c0-3.775,3.047-6.827,6.823-6.827h38.086c3.768,0,6.823,3.052,6.823,6.827V1166.885z"/>
			
				<linearGradient id="SVGID_00000138544038481496358820000010771801713483703471_" gradientUnits="userSpaceOnUse" x1="1364.1158" y1="1250.5303" x2="2139.0066" y2="1250.5303">
				<stop  offset="0" style="stop-color:#5392B2"/>
				<stop  offset="0.5317" style="stop-color:#006F96"/>
				<stop  offset="1" style="stop-color:#0F4767"/>
			</linearGradient>
			
				<rect x="1364.116" y="1186.256" style="fill:url(#SVGID_00000138544038481496358820000010771801713483703471_);" width="774.891" height="128.549"/>
			<g>
				<g>
					<path style="fill:#FFFFFF;" d="M1633.226,1209.831c-0.623,0-1.242,0.02-1.861,0.041v1.431c0.619-0.026,1.238-0.041,1.861-0.041
						c21.887,0,39.701,17.803,39.701,39.698c0,21.892-17.814,39.706-39.701,39.706c-0.623,0-1.242-0.019-1.861-0.046v1.42
						c0.619,0.031,1.238,0.05,1.861,0.05c22.678,0,41.132-18.452,41.132-41.13
						C1674.358,1228.283,1655.904,1209.831,1633.226,1209.831z"/>
				</g>
				<g>
					<path style="fill:#FFFFFF;" d="M1633.226,1209.831c-0.628,0-1.246,0.035-1.861,0.091v1.431c0.615-0.05,1.234-0.091,1.861-0.091
						c15.279,0,27.705,17.803,27.705,39.698c0,21.892-12.426,39.706-27.705,39.706c-0.628,0-1.246-0.041-1.861-0.097V1292
						c0.615,0.052,1.234,0.091,1.861,0.091c16.059,0,29.13-18.452,29.13-41.13
						C1662.356,1228.283,1649.285,1209.831,1633.226,1209.831z"/>
				</g>
				<g>
					<path style="fill:#FFFFFF;" d="M1633.223,1209.831c-0.639,0-1.262,0.173-1.857,0.498v1.699
						c0.619-0.502,1.238-0.766,1.857-0.766c4.814,0,9.972,15.946,9.972,39.698c0,23.753-5.158,39.706-9.972,39.706
						c-0.619,0-1.238-0.269-1.857-0.777v1.706c0.595,0.325,1.219,0.496,1.857,0.496c7.136,0,11.398-20.911,11.398-41.13
						C1644.62,1230.738,1640.359,1209.831,1633.223,1209.831z"/>
				</g>
				<g>
					<path style="fill:#FFFFFF;" d="M1633.226,1221.827c-0.623,0-1.242,0.015-1.861,0.035v1.422
						c0.619-0.015,1.238-0.032,1.861-0.032c21.887,0,39.701,12.428,39.701,27.709c0,15.277-17.814,27.699-39.701,27.699
						c-0.623,0-1.242,0-1.861-0.031v1.431c0.619,0.02,1.238,0.03,1.861,0.03c22.678,0,41.132-13.065,41.132-29.13
						C1674.358,1234.898,1655.904,1221.827,1633.226,1221.827z"/>
				</g>
				<g>
					<path style="fill:#FFFFFF;" d="M1633.226,1240.385c-0.623,0-1.242,0-1.861,0.011v1.426c0.615-0.006,1.234-0.006,1.861-0.006
						c23.398,0,39.701,4.818,39.701,9.144c0,4.327-16.303,9.152-39.701,9.152c-0.628,0-1.246-0.007-1.861-0.015v1.428
						c0.619,0.007,1.238,0.007,1.861,0.007c19.94,0,41.132-3.708,41.132-10.572
						C1674.358,1244.093,1653.166,1240.385,1633.226,1240.385z"/>
				</g>
			</g>
			<g>
				<polygon style="fill:#FFFFFF;" points="1900.138,1141.49 1889.852,1151.451 1910.943,1151.451 				"/>
				<polygon style="fill:#FFFFFF;" points="1891.872,1152.141 1891.872,1166.758 1896.599,1166.758 1896.599,1156.447 
					1904.725,1156.447 1904.725,1166.758 1908.924,1166.758 1908.924,1152.141 				"/>
			</g>
			<g>
				<path style="fill:#FFFFFF;" d="M2033.683,1167.992c-0.846,1.16-2.322,1.515-3.301,0.796l-10.134-7.366
					c-0.985-0.71-1.098-2.236-0.26-3.387l0,0c0.837-1.156,2.318-1.511,3.303-0.797l10.128,7.363
					C2034.399,1165.318,2034.52,1166.829,2033.683,1167.992L2033.683,1167.992z"/>
				<path style="fill:#FFFFFF;" d="M2003.215,1160.215c4.249,4.627,11.502,4.874,16.19,0.558c4.68-4.311,5.022-11.554,0.771-16.179
					c-4.27-4.625-11.515-4.87-16.201-0.558C1999.289,1148.347,1998.953,1155.6,2003.215,1160.215z M2005.497,1145.678
					c3.784-3.479,9.628-3.275,13.067,0.457c3.437,3.729,3.154,9.578-0.619,13.056c-3.779,3.485-9.632,3.281-13.067-0.45
					C2001.438,1155.011,2001.718,1149.159,2005.497,1145.678z"/>
			</g>
			<g>
				<rect x="1947.634" y="1146.892" style="fill:#FFFFFF;" width="14.507" height="1.175"/>
				<g>
					<g>
						<path style="fill:#FFFFFF;" d="M1948.482,1163.396c-1.506,0-2.729-1.223-2.729-2.725v-14.405c0-1.511,1.223-2.729,2.729-2.729
							h12.811c1.507,0,2.73,1.219,2.73,2.729v0.625h1.197v-1.578c0-1.705-1.375-3.084-3.08-3.084h-14.496
							c-1.714,0-3.095,1.379-3.095,3.084v16.301c0,1.705,1.381,3.089,3.095,3.089h6.34v-1.308H1948.482z"/>
						<path style="fill:#FFFFFF;" d="M1947.634,1151.066h6.35v-1.091c0-0.03,0-0.061,0-0.091h-6.35V1151.066z"/>
						<rect x="1947.634" y="1152.877" style="fill:#FFFFFF;" width="6.351" height="1.182"/>
						<rect x="1947.634" y="1155.875" style="fill:#FFFFFF;" width="6.351" height="1.175"/>
						<rect x="1947.634" y="1158.866" style="fill:#FFFFFF;" width="6.351" height="1.177"/>
						<path style="fill:#FFFFFF;" d="M1971.571,1146.892h-6.351h-1.197h-6.955c-1.673,0-3.028,1.333-3.084,2.991
							c0,0.03,0,0.061,0,0.091v1.091v1.812v1.182v1.816v1.175v1.816v1.177v3.353v1.308v1.578c0,1.703,1.381,3.084,3.084,3.084
							h14.502c1.708,0,3.082-1.381,3.082-3.084v-16.307C1974.653,1148.275,1973.279,1146.892,1971.571,1146.892z M1973.451,1165.334
							c0,1.507-1.219,2.723-2.729,2.723h-12.811c-1.502,0-2.73-1.216-2.73-2.723v-0.63v-1.308v-3.353v-1.177v-1.816v-1.175v-1.816
							v-1.182v-1.812v-0.143c0-0.364,0.076-0.719,0.215-1.039c0.405-0.989,1.379-1.68,2.515-1.68h6.113h1.197h5.502
							c1.511,0,2.729,1.219,2.729,2.719V1165.334z"/>
					</g>
					<rect x="1957.064" y="1151.553" style="fill:#FFFFFF;" width="14.507" height="1.182"/>
					<rect x="1957.064" y="1154.546" style="fill:#FFFFFF;" width="14.507" height="1.186"/>
					<rect x="1957.064" y="1157.537" style="fill:#FFFFFF;" width="14.507" height="1.182"/>
					<rect x="1957.064" y="1160.531" style="fill:#FFFFFF;" width="14.507" height="1.182"/>
					<rect x="1957.064" y="1163.522" style="fill:#FFFFFF;" width="14.507" height="1.182"/>
				</g>
			</g>
			<g>
				<path style="fill:#FFFFFF;" d="M2080.691,1148.003c0,4.108-3.266,7.435-7.309,7.435c-4.026,0-7.292-3.327-7.292-7.435
					c0-4.108,3.266-7.438,7.292-7.438C2077.425,1140.565,2080.691,1143.894,2080.691,1148.003z"/>
				<path style="fill:#FFFFFF;" d="M2072.338,1156.524c0,0-10.455,0.329-11.742,13.024h25.638
					C2086.234,1169.548,2084.652,1155.875,2072.338,1156.524z"/>
			</g>
			
				<linearGradient id="SVGID_00000157266490892858385550000012160671736874052258_" gradientUnits="userSpaceOnUse" x1="1405.0378" y1="1418.7225" x2="1562.0909" y2="1418.7225">
				<stop  offset="0.1902" style="stop-color:#A92934"/>
				<stop  offset="1" style="stop-color:#EC524F"/>
			</linearGradient>
			
				<rect x="1405.038" y="1349.447" style="fill:url(#SVGID_00000157266490892858385550000012160671736874052258_);" width="157.053" height="138.551"/>
			<rect x="1589.684" y="1349.447" style="fill:#FBAD35;" width="157.053" height="138.551"/>
			
				<linearGradient id="SVGID_00000151530779061444852690000018290370611621760674_" gradientUnits="userSpaceOnUse" x1="1766.4528" y1="1418.7225" x2="1923.502" y2="1418.7225">
				<stop  offset="0" style="stop-color:#5392B2"/>
				<stop  offset="0.5317" style="stop-color:#006F96"/>
				<stop  offset="1" style="stop-color:#0F4767"/>
			</linearGradient>
			
				<rect x="1766.453" y="1349.447" style="fill:url(#SVGID_00000151530779061444852690000018290370611621760674_);" width="157.049" height="138.551"/>
			<polygon style="fill:#FFFFFF;" points="1762.126,1244.424 1717.207,1198.825 1717.207,1228.05 1693.408,1228.03 
				1693.408,1268.82 1717.298,1268.76 1717.115,1297.64 			"/>
			<polygon style="fill:#FFFFFF;" points="1827.186,1245.275 1792.275,1209.831 1792.275,1232.546 1773.782,1232.524 
				1773.782,1264.236 1792.345,1264.184 1792.204,1286.634 			"/>
			<polygon style="fill:#FFFFFF;" points="1881.868,1246.037 1856.011,1219.792 1856.011,1236.612 1842.316,1236.602 
				1842.316,1260.082 1856.067,1260.045 1855.961,1276.666 			"/>
		</g>
	</g>
	<g>
		
			<linearGradient id="SVGID_00000140732932634879835400000007444713235790708640_" gradientUnits="userSpaceOnUse" x1="731.5116" y1="1325.343" x2="1183.4664" y2="1321.5924">
			<stop  offset="0" style="stop-color:#414042"/>
			<stop  offset="0.4797" style="stop-color:#242425"/>
			<stop  offset="1" style="stop-color:#000000"/>
		</linearGradient>
		<path style="fill:url(#SVGID_00000140732932634879835400000007444713235790708640_);" d="M761.85,1637.545
			c-8.801,0-15.941-7.134-15.941-15.933V1025.2c0-8.798,7.141-15.937,15.941-15.937h406.66c8.794,0,15.937,7.139,15.937,15.937
			v596.411c0,8.799-7.143,15.933-15.937,15.933H761.85z"/>
		<path style="fill:#0B0A11;" d="M789.81,1559.357c-7.452,0-13.482-5.762-13.482-12.866v-481.403c0-7.104,6.03-12.864,13.482-12.864
			h350.731c7.452,0,13.483,5.76,13.483,12.864v481.403c0,7.104-6.031,12.866-13.483,12.866H789.81z"/>
		
			<linearGradient id="SVGID_00000119110206440927621220000007430589483702627504_" gradientUnits="userSpaceOnUse" x1="789.2257" y1="1305.7896" x2="1141.1261" y2="1305.7896">
			<stop  offset="0" style="stop-color:#FFFFFF"/>
			<stop  offset="1" style="stop-color:#454547"/>
		</linearGradient>
		<path style="fill:url(#SVGID_00000119110206440927621220000007430589483702627504_);" d="M802.02,1546.32
			c-7.067,0-12.795-5.465-12.795-12.205v-456.646c0-6.745,5.727-12.21,12.795-12.21h326.314c7.065,0,12.792,5.465,12.792,12.21
			v456.646c0,6.74-5.727,12.205-12.792,12.205H802.02z"/>
		<g>
			
				<linearGradient id="SVGID_00000025416310038213536360000014929923488478280836_" gradientUnits="userSpaceOnUse" x1="915.7599" y1="1591.5883" x2="1026.4083" y2="1591.5883">
				<stop  offset="0" style="stop-color:#FFFFFF"/>
				<stop  offset="0.0726" style="stop-color:#D7D8DA"/>
				<stop  offset="0.1648" style="stop-color:#AEB0B3"/>
				<stop  offset="0.262" style="stop-color:#8C8E91"/>
				<stop  offset="0.3625" style="stop-color:#717375"/>
				<stop  offset="0.4672" style="stop-color:#595A5C"/>
				<stop  offset="0.5773" style="stop-color:#444446"/>
				<stop  offset="0.6954" style="stop-color:#282829"/>
				<stop  offset="0.8271" style="stop-color:#0D0D0D"/>
				<stop  offset="1" style="stop-color:#000000"/>
			</linearGradient>
			<path style="fill:url(#SVGID_00000025416310038213536360000014929923488478280836_);" d="M1026.408,1599.833
				c0,4.557-3.771,8.251-8.405,8.251h-93.846c-4.632,0-8.398-3.694-8.398-8.251v-16.498c0-4.549,3.766-8.242,8.398-8.242h93.846
				c4.634,0,8.405,3.693,8.405,8.242V1599.833z"/>
			<path d="M1023.378,1599.06c0,4.002-3.565,7.245-7.957,7.245h-88.802c-4.394,0-7.955-3.243-7.955-7.245v-14.487
				c0-3.998,3.561-7.249,7.955-7.249h88.802c4.392,0,7.957,3.251,7.957,7.249V1599.06z"/>
		</g>
		<g>
			<path d="M1018.618,1033.953c0,1.903-3.567,3.439-7.953,3.439h-88.813c-4.394,0-7.948-1.537-7.948-3.439v-6.874
				c0-1.896,3.554-3.433,7.948-3.433h88.813c4.385,0,7.953,1.536,7.953,3.433V1033.953z"/>
			<path d="M1045.315,1030.512c0,4.599-3.922,8.316-8.751,8.316c-4.833,0-8.753-3.717-8.753-8.316c0-4.587,3.92-8.307,8.753-8.307
				C1041.393,1022.205,1045.315,1025.926,1045.315,1030.512z"/>
		</g>
		<g>
			
				<linearGradient id="SVGID_00000169544131607955924500000009071411002996921768_" gradientUnits="userSpaceOnUse" x1="789.2257" y1="1305.7896" x2="1141.1261" y2="1305.7896">
				<stop  offset="0" style="stop-color:#FFFFFF"/>
				<stop  offset="1" style="stop-color:#818386"/>
			</linearGradient>
			<path style="fill:url(#SVGID_00000169544131607955924500000009071411002996921768_);" d="M802.02,1546.32
				c-7.067,0-12.795-5.465-12.795-12.205v-456.646c0-6.745,5.727-12.21,12.795-12.21h326.314c7.065,0,12.792,5.465,12.792,12.21
				v456.646c0,6.74-5.727,12.205-12.792,12.205H802.02z"/>
			<rect x="789.174" y="1152.97" style="fill:#A7A9AC;" width="351.614" height="108.763"/>
			<rect x="949.015" y="1276.103" style="fill:#FFFFFF;" width="144.681" height="23.944"/>
			<rect x="949.015" y="1312.701" style="fill:#FFFFFF;" width="144.681" height="23.948"/>
			<rect x="949.015" y="1346.625" style="fill:#FFFFFF;" width="144.681" height="23.95"/>
			<rect x="949.015" y="1379.843" style="fill:#FFFFFF;" width="144.681" height="23.948"/>
			<rect x="950.097" y="1413.427" style="fill:#FFFFFF;" width="144.683" height="23.948"/>
			<rect x="948.751" y="1446.204" style="fill:#FFFFFF;" width="144.676" height="23.95"/>
			<rect x="949.015" y="1479.79" style="fill:#FFFFFF;" width="144.681" height="23.944"/>
			<path style="fill:#808285;" d="M1001.216,1124.763c0,2.807-2.279,5.091-5.097,5.091h-28.47c-2.805,0-5.086-2.283-5.086-5.091
				v-17.68c0-2.818,2.281-5.102,5.086-5.102h28.47c2.818,0,5.097,2.284,5.097,5.102V1124.763z"/>
			<path style="fill:#808285;" d="M1045.003,1124.763c0,2.807-2.279,5.091-5.097,5.091h-28.461c-2.805,0-5.095-2.283-5.095-5.091
				v-17.68c0-2.818,2.29-5.102,5.095-5.102h28.461c2.818,0,5.097,2.284,5.097,5.102V1124.763z"/>
			<path style="fill:#808285;" d="M1088.077,1124.763c0,2.807-2.279,5.091-5.091,5.091h-28.472c-2.81,0-5.091-2.283-5.091-5.091
				v-17.68c0-2.818,2.281-5.102,5.091-5.102h28.472c2.812,0,5.091,2.284,5.091,5.102V1124.763z"/>
			<path style="fill:#808285;" d="M1130.057,1124.763c0,2.807-2.279,5.091-5.097,5.091h-28.461c-2.814,0-5.095-2.283-5.095-5.091
				v-17.68c0-2.818,2.282-5.102,5.095-5.102h28.461c2.818,0,5.097,2.284,5.097,5.102V1124.763z"/>
			
				<linearGradient id="SVGID_00000163752350704601683640000011035554340224929457_" gradientUnits="userSpaceOnUse" x1="789.1739" y1="1195.1031" x2="1140.9098" y2="1195.1031">
				<stop  offset="0" style="stop-color:#5392B2"/>
				<stop  offset="0.5317" style="stop-color:#006F96"/>
				<stop  offset="1" style="stop-color:#0F4767"/>
			</linearGradient>
			
				<rect x="789.174" y="1135.869" style="fill:url(#SVGID_00000163752350704601683640000011035554340224929457_);" width="351.736" height="118.469"/>
			<g>
				<g>
					<path style="fill:#FFFFFF;" d="M932.283,1168.135c-0.331,0-0.66,0.008-0.996,0.028v0.764c0.336-0.019,0.664-0.03,0.996-0.03
						c11.723,0,21.264,9.536,21.264,21.266c0,11.719-9.541,21.255-21.264,21.255c-0.331,0-0.66-0.006-0.996-0.026v0.766
						c0.336,0.011,0.664,0.022,0.996,0.022c12.143,0,22.026-9.874,22.026-22.017
						C954.309,1178.018,944.426,1168.135,932.283,1168.135z"/>
				</g>
				<g>
					<path style="fill:#FFFFFF;" d="M932.283,1168.135c-0.34,0-0.664,0.019-0.996,0.047v0.773c0.331-0.028,0.656-0.058,0.996-0.058
						c8.186,0,14.838,9.536,14.838,21.266c0,11.719-6.651,21.255-14.838,21.255c-0.34,0-0.664-0.021-0.996-0.05v0.764
						c0.331,0.032,0.656,0.047,0.996,0.047c8.606,0,15.595-9.874,15.595-22.017C947.879,1178.018,940.889,1168.135,932.283,1168.135
						z"/>
				</g>
				<g>
					<path style="fill:#FFFFFF;" d="M932.283,1168.135c-0.34,0-0.673,0.095-0.996,0.264v0.914c0.336-0.268,0.664-0.415,0.996-0.415
						c2.58,0,5.34,8.547,5.34,21.266c0,12.712-2.76,21.255-5.34,21.255c-0.331,0-0.66-0.145-0.996-0.411v0.909
						c0.323,0.178,0.656,0.264,0.996,0.264c3.825,0,6.1-11.193,6.1-22.017S936.108,1168.135,932.283,1168.135z"/>
				</g>
				<g>
					<path style="fill:#FFFFFF;" d="M932.283,1174.561c-0.331,0-0.66,0.008-0.996,0.017v0.764c0.336-0.009,0.664-0.02,0.996-0.02
						c11.723,0,21.264,6.651,21.264,14.839c0,8.176-9.541,14.827-21.264,14.827c-0.331,0-0.66,0-0.996-0.015v0.769
						c0.336,0.011,0.664,0.011,0.996,0.011c12.143,0,22.026-6.996,22.026-15.591
						C954.309,1181.561,944.426,1174.561,932.283,1174.561z"/>
				</g>
				<g>
					<path style="fill:#FFFFFF;" d="M932.283,1184.498c-0.331,0-0.66,0-0.996,0.006v0.758c0.331,0,0.656,0,0.996,0
						c12.528,0,21.264,2.58,21.264,4.901c0,2.312-8.736,4.896-21.264,4.896c-0.34,0-0.664-0.007-0.996-0.007v0.762
						c0.336,0.007,0.664,0.007,0.996,0.007c10.684,0,22.026-1.985,22.026-5.658C954.309,1186.483,942.967,1184.498,932.283,1184.498
						z"/>
				</g>
			</g>
			<g>
				<polygon style="fill:#FFFFFF;" points="981.236,1105.778 973.556,1113.219 989.318,1113.219 				"/>
				<polygon style="fill:#FFFFFF;" points="975.065,1113.739 975.065,1124.661 978.597,1124.661 978.597,1116.955 984.666,1116.955 
					984.666,1124.661 987.809,1124.661 987.809,1113.739 				"/>
			</g>
			<g>
				<path style="fill:#FFFFFF;" d="M1081.038,1125.585c-0.63,0.862-1.732,1.126-2.467,0.595l-7.573-5.509
					c-0.736-0.532-0.818-1.666-0.197-2.53l0,0c0.634-0.861,1.742-1.125,2.467-0.591l7.576,5.503
					C1081.572,1123.583,1081.665,1124.724,1081.038,1125.585L1081.038,1125.585z"/>
				<path style="fill:#FFFFFF;" d="M1058.267,1119.773c3.175,3.457,8.602,3.641,12.097,0.418c3.5-3.225,3.76-8.638,0.576-12.086
					c-3.184-3.457-8.602-3.645-12.102-0.424C1055.339,1110.908,1055.085,1116.319,1058.267,1119.773z M1059.975,1108.91
					c2.825-2.606,7.197-2.448,9.768,0.336c2.563,2.788,2.357,7.16-0.468,9.76c-2.82,2.604-7.194,2.448-9.764-0.329
					C1056.941,1115.875,1057.153,1111.514,1059.975,1108.91z"/>
			</g>
			<g>
				<rect x="1016.731" y="1109.819" style="fill:#FFFFFF;" width="10.846" height="0.883"/>
				<g>
					<g>
						<path style="fill:#FFFFFF;" d="M1017.363,1122.15c-1.119,0-2.035-0.913-2.035-2.039v-10.762c0-1.13,0.915-2.039,2.035-2.039
							h9.582c1.119,0,2.035,0.909,2.035,2.039v0.47h0.9v-1.182c0-1.277-1.032-2.305-2.303-2.305h-10.84
							c-1.277,0-2.306,1.028-2.306,2.305v12.19c0,1.268,1.029,2.303,2.306,2.303h4.742v-0.98H1017.363z"/>
						<path style="fill:#FFFFFF;" d="M1016.731,1112.938h4.749v-0.818c0-0.021,0-0.043,0-0.069h-4.749V1112.938z"/>
						<rect x="1016.731" y="1114.284" style="fill:#FFFFFF;" width="4.749" height="0.885"/>
						<rect x="1016.731" y="1116.529" style="fill:#FFFFFF;" width="4.749" height="0.874"/>
						<rect x="1016.731" y="1118.758" style="fill:#FFFFFF;" width="4.749" height="0.887"/>
						<path style="fill:#FFFFFF;" d="M1034.622,1109.819h-4.742h-0.9h-5.202c-1.249,0-2.259,0.998-2.299,2.232
							c0,0.026,0,0.048,0,0.069v0.818v1.346v0.885v1.36v0.874v1.355v0.887v2.504v0.98v1.173c0,1.277,1.028,2.309,2.299,2.309h10.844
							c1.273,0,2.303-1.032,2.303-2.309v-12.184C1036.926,1110.849,1035.895,1109.819,1034.622,1109.819z M1036.027,1123.598
							c0,1.125-0.915,2.039-2.035,2.039h-9.582c-1.123,0-2.03-0.914-2.03-2.039v-0.468v-0.98v-2.504v-0.887v-1.355v-0.874v-1.36
							v-0.885v-1.346v-0.104c0-0.281,0.052-0.537,0.149-0.784c0.307-0.732,1.032-1.251,1.881-1.251h4.569h0.9h4.112
							c1.119,0,2.035,0.909,2.035,2.035V1123.598z"/>
					</g>
					<rect x="1023.778" y="1113.304" style="fill:#FFFFFF;" width="10.844" height="0.877"/>
					<rect x="1023.778" y="1115.537" style="fill:#FFFFFF;" width="10.844" height="0.883"/>
					<rect x="1023.778" y="1117.771" style="fill:#FFFFFF;" width="10.844" height="0.885"/>
					<rect x="1023.778" y="1120.014" style="fill:#FFFFFF;" width="10.844" height="0.881"/>
					<rect x="1023.778" y="1122.245" style="fill:#FFFFFF;" width="10.844" height="0.885"/>
				</g>
			</g>
			<g>
				<path style="fill:#FFFFFF;" d="M1116.17,1110.648c0,3.063-2.439,5.556-5.463,5.556c-3.015,0-5.455-2.494-5.455-5.556
					c0-3.072,2.439-5.556,5.455-5.556C1113.73,1105.092,1116.17,1107.576,1116.17,1110.648z"/>
				<path style="fill:#FFFFFF;" d="M1109.929,1117.016c0,0-7.816,0.245-8.779,9.734h19.167
					C1120.317,1126.749,1119.128,1116.529,1109.929,1117.016z"/>
			</g>
			
				<linearGradient id="SVGID_00000116949704135608402810000011441389098713470620_" gradientUnits="userSpaceOnUse" x1="842.0199" y1="1312.2863" x2="926.4892" y2="1312.2863">
				<stop  offset="0.1902" style="stop-color:#A92934"/>
				<stop  offset="1" style="stop-color:#EC524F"/>
			</linearGradient>
			
				<rect x="842.02" y="1275.026" style="fill:url(#SVGID_00000116949704135608402810000011441389098713470620_);" width="84.469" height="74.521"/>
			<rect x="842.059" y="1354.058" style="fill:#FBAD35;" width="84.467" height="74.528"/>
			
				<linearGradient id="SVGID_00000005956103106174704230000003518991836252261034_" gradientUnits="userSpaceOnUse" x1="842.2885" y1="1471.6249" x2="926.7641" y2="1471.6249">
				<stop  offset="0" style="stop-color:#5392B2"/>
				<stop  offset="0.5317" style="stop-color:#006F96"/>
				<stop  offset="1" style="stop-color:#0F4767"/>
			</linearGradient>
			
				<rect x="842.288" y="1434.362" style="fill:url(#SVGID_00000005956103106174704230000003518991836252261034_);" width="84.476" height="74.525"/>
			<polygon style="fill:#FFFFFF;" points="1001.3,1186.656 977.259,1162.247 977.259,1177.894 964.513,1177.881 964.513,1199.723 
				977.303,1199.684 977.201,1215.156 			"/>
			<polygon style="fill:#FFFFFF;" points="1036.14,1187.117 1017.45,1168.135 1017.45,1180.299 1007.545,1180.288 
				1007.545,1197.264 1017.486,1197.24 1017.411,1209.258 			"/>
			<polygon style="fill:#FFFFFF;" points="1065.419,1187.522 1051.581,1173.472 1051.581,1182.479 1044.24,1182.47 
				1044.24,1195.041 1051.607,1195.026 1051.553,1203.924 			"/>
		</g>
	</g>
	<g>
		<g>
			<g>
				
					<linearGradient id="SVGID_00000078012230719874107960000004687736134237945223_" gradientUnits="userSpaceOnUse" x1="394.1656" y1="-4911.6484" x2="1022.4469" y2="-4911.6484" gradientTransform="matrix(0 1 -1 0 -2911.7891 -148.0288)">
					<stop  offset="0" style="stop-color:#414042"/>
					<stop  offset="0.4797" style="stop-color:#242425"/>
					<stop  offset="1" style="stop-color:#000000"/>
				</linearGradient>
				<path style="fill:url(#SVGID_00000078012230719874107960000004687736134237945223_);" d="M1816.003,874.418
					c-9.801,0-17.743-9.203-17.743-20.545V266.684c0-11.355,7.942-20.547,17.743-20.547h367.727c9.79,0,17.729,9.193,17.729,20.547
					v587.188c0,11.342-7.939,20.545-17.729,20.545H1816.003z"/>
				<path style="fill:#58595B;" d="M1841.102,811.176c-8.446,0-15.303-7.684-15.303-17.16V293.448
					c0-9.476,6.857-17.151,15.303-17.151h317.519c8.45,0,15.29,7.675,15.29,17.151v500.568c0,9.476-6.84,17.16-15.29,17.16H1841.102
					z"/>
				<path d="M1842.706,806.423c-8.37,0-15.16-7.606-15.16-16.978V293.266c0-9.372,6.79-16.969,15.16-16.969h314.303
					c8.387,0,15.158,7.597,15.158,16.969v496.178c0,9.372-6.771,16.978-15.158,16.978H1842.706z"/>
				
					<linearGradient id="SVGID_00000109007206747279595540000002108917556947715753_" gradientUnits="userSpaceOnUse" x1="429.2908" y1="-4912.8833" x2="949.7115" y2="-4912.8833" gradientTransform="matrix(0 1 -1 0 -2911.7891 -148.0288)">
					<stop  offset="0" style="stop-color:#57BCEB"/>
					<stop  offset="1" style="stop-color:#003A5C"/>
				</linearGradient>
				<path style="fill:url(#SVGID_00000109007206747279595540000002108917556947715753_);" d="M1848.864,801.683
					c-8.113,0-14.678-7.455-14.678-16.636V297.89c0-9.184,6.565-16.628,14.678-16.628h304.463c8.099,0,14.675,7.444,14.675,16.628
					v487.157c0,9.181-6.576,16.636-14.675,16.636H1848.864z"/>
				
					<linearGradient id="SVGID_00000010281471424986670370000003295460485407392904_" gradientUnits="userSpaceOnUse" x1="1999.8605" y1="827.1974" x2="1999.8605" y2="853.717">
					<stop  offset="0" style="stop-color:#FFFFFF"/>
					<stop  offset="1" style="stop-color:#818386"/>
				</linearGradient>
				<path style="fill:url(#SVGID_00000010281471424986670370000003295460485407392904_);" d="M2042.761,840.457
					c0,7.325-5.94,13.26-13.262,13.26h-59.277c-7.324,0-13.262-5.935-13.262-13.26l0,0c0-7.32,5.937-13.26,13.262-13.26h59.277
					C2036.821,827.197,2042.761,833.137,2042.761,840.457L2042.761,840.457z"/>
			</g>
			<path d="M2039.702,260.836c0,3.214-2.602,5.814-5.818,5.814h-61.781c-3.203,0-5.818-2.599-5.818-5.814l0,0
				c0-3.208,2.615-5.805,5.818-5.805h61.781C2037.1,255.031,2039.702,257.628,2039.702,260.836L2039.702,260.836z"/>
		</g>
		<g>
			<rect x="1834.186" y="698.939" style="opacity:0.5;fill:#FFFFFF;" width="333.816" height="56.463"/>
			<g>
				<g>
					<g>
						<path style="fill:#FFFFFF;" d="M1997.542,351.855h-32.621c-3.563,0-6.431-2.883-6.431-6.433v-20.255
							c0-3.55,2.868-6.439,6.431-6.439h32.621c3.55,0,6.426,2.889,6.426,6.439v20.255
							C2003.969,348.971,2001.092,351.855,1997.542,351.855z M1964.921,319.929c-2.898,0-5.232,2.348-5.232,5.238v20.255
							c0,2.89,2.333,5.241,5.232,5.241h32.621c2.881,0,5.232-2.351,5.232-5.241v-20.255c0-2.89-2.351-5.238-5.232-5.238H1964.921z"
							/>
					</g>
					<g>
						<path style="fill:#FFFFFF;" d="M2047.726,351.855h-32.638c-3.545,0-6.426-2.883-6.426-6.433v-20.255
							c0-3.55,2.881-6.439,6.426-6.439h32.638c3.55,0,6.431,2.889,6.431,6.439v20.255
							C2054.157,348.971,2051.276,351.855,2047.726,351.855z M2015.088,319.929c-2.881,0-5.214,2.348-5.214,5.238v20.255
							c0,2.89,2.333,5.241,5.214,5.241h32.638c2.881,0,5.221-2.351,5.221-5.241v-20.255c0-2.89-2.34-5.238-5.221-5.238H2015.088z"/>
					</g>
					<g>
						<path style="fill:#FFFFFF;" d="M2097.059,351.855h-32.612c-3.545,0-6.44-2.883-6.44-6.433v-20.255
							c0-3.55,2.894-6.439,6.44-6.439h32.612c3.55,0,6.457,2.889,6.457,6.439v20.255
							C2103.515,348.971,2100.609,351.855,2097.059,351.855z M2064.447,319.929c-2.89,0-5.238,2.348-5.238,5.238v20.255
							c0,2.89,2.348,5.241,5.238,5.241h32.612c2.898,0,5.249-2.351,5.249-5.241v-20.255c0-2.89-2.351-5.238-5.249-5.238H2064.447z"
							/>
					</g>
					<g>
						<path style="fill:#FFFFFF;" d="M2145.176,351.855h-32.63c-3.55,0-6.427-2.883-6.427-6.433v-20.255
							c0-3.55,2.877-6.439,6.427-6.439h32.63c3.558,0,6.439,2.889,6.439,6.439v20.255
							C2151.615,348.971,2148.734,351.855,2145.176,351.855z M2112.546,319.929c-2.881,0-5.231,2.348-5.231,5.238v20.255
							c0,2.89,2.35,5.241,5.231,5.241h32.63c2.889,0,5.24-2.351,5.24-5.241v-20.255c0-2.89-2.351-5.238-5.24-5.238H2112.546z"/>
					</g>
					<g>
						<polygon style="fill:#FFFFFF;" points="1980.469,323.675 1971.679,332.199 1989.722,332.199 						"/>
						<polygon style="fill:#FFFFFF;" points="1973.406,332.799 1973.406,345.311 1977.454,345.311 1977.454,336.487 
							1984.408,336.487 1984.408,345.311 1988.014,345.311 1988.014,332.799 						"/>
					</g>
					<g>
						<rect x="2021.15" y="328.296" style="fill:#FFFFFF;" width="12.426" height="1.022"/>
						<g>
							<g>
								<path style="fill:#FFFFFF;" d="M2021.875,342.439c-1.283,0-2.32-1.048-2.32-2.333v-12.34c0-1.294,1.037-2.333,2.32-2.333
									h10.981c1.294,0,2.348,1.039,2.348,2.333v0.53h1.013v-1.346c0-1.457-1.18-2.641-2.641-2.641h-12.409
									c-1.476,0-2.658,1.184-2.658,2.641v13.961c0,1.459,1.182,2.642,2.658,2.642h5.424v-1.114H2021.875z"/>
								<path style="fill:#FFFFFF;" d="M2021.15,331.874h5.441v-0.926c0-0.035,0-0.061,0-0.078h-5.441V331.874z"/>
								<rect x="2021.15" y="333.426" style="fill:#FFFFFF;" width="5.441" height="1.011"/>
								<rect x="2021.15" y="335.989" style="fill:#FFFFFF;" width="5.441" height="1.013"/>
								<rect x="2021.15" y="338.554" style="fill:#FFFFFF;" width="5.441" height="1.002"/>
								<path style="fill:#FFFFFF;" d="M2041.646,328.296h-5.428h-1.013h-5.967c-1.433,0-2.602,1.149-2.645,2.574
									c0,0.017,0,0.043,0,0.078v0.926v1.552v1.011v1.552v1.013v1.552v1.002v2.883v1.114v1.347c0,1.465,1.182,2.649,2.645,2.649
									h12.409c1.461,0,2.645-1.184,2.645-2.649v-13.952C2044.291,329.48,2043.107,328.296,2041.646,328.296z M2043.274,344.093
									c0,1.286-1.059,2.333-2.349,2.333h-10.963c-1.297,0-2.338-1.047-2.338-2.333v-0.539v-1.114v-2.883v-1.002v-1.552v-1.013
									v-1.552v-1.011v-1.552v-0.113c0-0.318,0.069-0.617,0.18-0.892c0.348-0.857,1.166-1.442,2.158-1.442h5.242h1.013h4.708
									c1.29,0,2.349,1.039,2.349,2.333V344.093z"/>
							</g>
							<rect x="2029.22" y="332.294" style="fill:#FFFFFF;" width="12.426" height="1.011"/>
							<rect x="2029.22" y="334.857" style="fill:#FFFFFF;" width="12.426" height="1.013"/>
							<rect x="2029.22" y="337.422" style="fill:#FFFFFF;" width="12.426" height="1.011"/>
							<rect x="2029.22" y="339.985" style="fill:#FFFFFF;" width="12.426" height="1.004"/>
							<rect x="2029.22" y="342.541" style="fill:#FFFFFF;" width="12.426" height="1.013"/>
						</g>
					</g>
					<g>
						<path style="fill:#FFFFFF;" d="M2135.1,329.249c0,3.517-2.796,6.372-6.246,6.372c-3.466,0-6.273-2.855-6.273-6.372
							c0-3.515,2.807-6.362,6.273-6.362C2132.303,322.887,2135.1,325.733,2135.1,329.249z"/>
						<path style="fill:#FFFFFF;" d="M2127.948,336.547c0,0-8.961,0.29-10.061,11.156h21.955
							C2139.842,347.703,2138.496,335.989,2127.948,336.547z"/>
					</g>
				</g>
				<g>
					<path style="fill:#FFFFFF;" d="M2086.598,336.95v-2.898h-2.115c-0.18-1.543-0.806-2.95-1.736-4.099l1.407-1.407l-2.063-2.056
						l-1.569,1.578c-0.837-0.489-1.783-0.842-2.783-1.013v-2.015h-2.898v2.015c-1.111,0.188-2.138,0.599-3.057,1.184l-1.729-1.749
						l-2.074,2.056l1.658,1.673c-0.818,1.089-1.377,2.409-1.561,3.833h-2.084v2.898h2.268c0.206,0.849,0.559,1.638,1.013,2.357
						l-1.749,1.76l2.056,2.048l1.673-1.68c0.917,0.695,1.972,1.201,3.13,1.466v2.744h2.907v-2.58
						c1.403-0.164,2.684-0.669,3.768-1.433l1.507,1.483l2.041-2.048l-1.485-1.476c0.554-0.797,0.957-1.689,1.193-2.641H2086.598z
						 M2076.302,339.883c-2.764,0-4.963-2.168-4.963-4.855c0-2.693,2.199-4.87,4.963-4.87c2.74,0,4.952,2.177,4.952,4.87
						C2081.254,337.714,2079.042,339.883,2076.302,339.883z"/>
					<path style="fill:#FFFFFF;" d="M2095.516,330.87v-1.442h-1.029c-0.113-0.77-0.417-1.465-0.892-2.032l0.697-0.71l-1.015-1.022
						l-0.781,0.79c-0.403-0.24-0.892-0.42-1.375-0.506v-1.004h-1.446v1.004c-0.559,0.093-1.072,0.301-1.517,0.591l-0.866-0.875
						l-1.03,1.022l0.835,0.831c-0.416,0.55-0.692,1.192-0.762,1.911h-1.059v1.442h1.128c0.11,0.42,0.277,0.814,0.508,1.167
						l-0.87,0.875l1.031,1.019l0.831-0.831c0.45,0.344,0.961,0.591,1.547,0.73v1.355h1.446v-1.277
						c0.68-0.078,1.325-0.336,1.881-0.712l0.734,0.736l1.015-1.019l-0.736-0.73c0.277-0.394,0.487-0.84,0.599-1.312H2095.516z
						 M2090.397,332.329c-1.351,0-2.461-1.082-2.461-2.42c0-1.337,1.11-2.418,2.461-2.418c1.364,0,2.478,1.08,2.478,2.418
						C2092.875,331.247,2091.76,332.329,2090.397,332.329z"/>
				</g>
			</g>
			<g>
				<rect x="1834.186" y="362.437" style="fill:#E67067;" width="333.539" height="87.409"/>
				<rect x="1834.186" y="443.824" style="fill:#FFFFFF;" width="333.606" height="12.922"/>
				<rect x="1834.186" y="362.411" style="fill:#FBB040;" width="333.606" height="6.509"/>
				<g>
					<rect x="1858.734" y="465.854" style="opacity:0.5;fill:#FFFFFF;" width="136.631" height="106.19"/>
					<rect x="2004.33" y="465.854" style="opacity:0.5;fill:#FFFFFF;" width="136.636" height="106.19"/>
				</g>
				<g style="opacity:0.5;">
					<rect x="1920.051" y="581.87" style="opacity:0.5;fill:#BCBEC0;" width="76.883" height="68.757"/>
					<rect x="2001.975" y="581.87" style="opacity:0.5;fill:#BCBEC0;" width="76.887" height="68.757"/>
				</g>
				<path style="fill:#FFFFFF;" d="M2053.838,410.56v-7.974h-5.766c-0.519-4.227-2.242-8.086-4.822-11.242l3.874-3.877l-5.643-5.634
					l-4.325,4.323c-2.312-1.355-4.881-2.307-7.628-2.788v-5.53h-7.976v5.53c-3.06,0.524-5.904,1.656-8.411,3.251l-4.79-4.786
					l-5.648,5.634l4.589,4.589c-2.282,3.017-3.803,6.611-4.288,10.53h-5.768v7.974h6.258c0.582,2.316,1.53,4.502,2.786,6.476
					l-4.818,4.818l5.64,5.636l4.589-4.589c2.508,1.892,5.433,3.282,8.61,4.022v7.52h7.982v-7.082
					c3.833-0.454,7.37-1.844,10.381-3.935l4.061,4.065l5.652-5.636l-4.061-4.056c1.504-2.169,2.61-4.615,3.262-7.238H2053.838z
					 M2025.54,418.629c-7.524,0-13.63-5.974-13.63-13.359c0-7.383,6.106-13.362,13.63-13.362c7.53,0,13.632,5.979,13.632,13.362
					C2039.172,412.655,2033.07,418.629,2025.54,418.629z"/>
				<path style="fill:#FFFFFF;" d="M2089.304,416.564v-5.281h-3.82c-0.353-2.797-1.49-5.364-3.199-7.446l2.567-2.572l-3.738-3.741
					l-2.868,2.875c-1.535-0.901-3.234-1.537-5.057-1.853v-3.663h-5.281v3.663c-2.028,0.351-3.916,1.098-5.573,2.16l-3.177-3.182
					l-3.74,3.741l3.041,3.043c-1.513,2-2.518,4.381-2.837,6.974h-3.825v5.281h4.145c0.385,1.541,1.013,2.982,1.844,4.294l-3.19,3.19
					l3.738,3.741l3.036-3.043c1.669,1.259,3.602,2.177,5.712,2.666v4.982h5.286v-4.692c2.543-0.299,4.887-1.225,6.881-2.606
					l2.688,2.693l3.744-3.741l-2.693-2.684c1.002-1.433,1.731-3.061,2.165-4.801H2089.304z M2070.548,421.923
					c-4.987,0-9.03-3.961-9.03-8.857c0-4.901,4.043-8.861,9.03-8.861s9.035,3.961,9.035,8.861
					C2079.583,417.962,2075.535,421.923,2070.548,421.923z"/>
				<rect x="1919.026" y="654.736" style="fill:#FFFFFF;" width="159.837" height="12.723"/>
				<rect x="1919.026" y="673.952" style="fill:#FFFFFF;" width="159.837" height="12.727"/>
			</g>
		</g>
	</g>
	<g>
		<g>
			
				<linearGradient id="SVGID_00000048460980116033839310000016793032162170995077_" gradientUnits="userSpaceOnUse" x1="2702.032" y1="-7677.8149" x2="3561.8833" y2="-7677.8149" gradientTransform="matrix(-1 0 0 -1 3747.8926 -7138.4443)">
				<stop  offset="0" style="stop-color:#262626"/>
				<stop  offset="1" style="stop-color:#000000"/>
			</linearGradient>
			<path style="fill:url(#SVGID_00000048460980116033839310000016793032162170995077_);" d="M186.009,271.931
				c0-14.247,12.84-25.792,28.684-25.792h802.484c15.836,0,28.684,11.545,28.684,25.792V806.81
				c0,14.247-12.848,25.792-28.684,25.792H214.693c-15.844,0-28.684-11.545-28.684-25.792V271.931z"/>
			
				<linearGradient id="SVGID_00000112619585105666021560000003465700435623030440_" gradientUnits="userSpaceOnUse" x1="186.0093" y1="812.953" x2="1045.8606" y2="812.953">
				<stop  offset="0" style="stop-color:#000000"/>
				<stop  offset="0.5805" style="stop-color:#262626"/>
				<stop  offset="1" style="stop-color:#000000"/>
			</linearGradient>
			<path style="fill:url(#SVGID_00000112619585105666021560000003465700435623030440_);" d="M186.009,752.122v108.761
				c0,7.125,12.84,12.9,28.684,12.9h802.484c15.836,0,28.684-5.775,28.684-12.9V752.122H186.009z"/>
			<path d="M217.598,299.078c0-12.762,11.82-23.116,26.415-23.116h743.86c14.587,0,26.39,10.355,26.39,23.116v479.417
				c0,12.762-11.803,23.117-26.39,23.117h-743.86c-14.595,0-26.415-10.355-26.415-23.117V299.078z"/>
			
				<linearGradient id="SVGID_00000088823702874022594570000012184685515139663517_" gradientUnits="userSpaceOnUse" x1="2741.1658" y1="-7679.252" x2="3522.7405" y2="-7679.252" gradientTransform="matrix(-1 0 0 -1 3747.8926 -7138.4443)">
				<stop  offset="0" style="stop-color:#FFFFFF"/>
				<stop  offset="1" style="stop-color:#AEB0B2"/>
			</linearGradient>
			<path style="fill:url(#SVGID_00000088823702874022594570000012184685515139663517_);" d="M225.152,308.615
				c0-12.368,11.588-22.385,25.85-22.385h729.856c14.288,0,25.868,10.017,25.868,22.385v464.382c0,12.368-11.58,22.39-25.868,22.39
				H251.002c-14.262,0-25.85-10.022-25.85-22.39V308.615z"/>
			<g>
				<rect x="290.71" y="350.281" style="fill:#FFFFFF;" width="650.314" height="170.415"/>
				<rect x="290.71" y="508.968" style="fill:#EC524F;" width="650.441" height="25.19"/>
				<rect x="290.71" y="350.225" style="fill:#EC524F;" width="650.441" height="12.697"/>
				<g>
					
						<linearGradient id="SVGID_00000041999233470188570960000002235752864342972081_" gradientUnits="userSpaceOnUse" x1="348.071" y1="665.5883" x2="607.3571" y2="665.5883">
						<stop  offset="0" style="stop-color:#57BCEB"/>
						<stop  offset="1" style="stop-color:#003A5C"/>
					</linearGradient>
					
						<rect x="348.071" y="564.834" style="fill:url(#SVGID_00000041999233470188570960000002235752864342972081_);" width="259.286" height="201.509"/>
					
						<linearGradient id="SVGID_00000001663768241845326490000015541763183742760326_" gradientUnits="userSpaceOnUse" x1="624.3678" y1="665.5883" x2="883.6623" y2="665.5883">
						<stop  offset="0.2" style="stop-color:#C17D45"/>
						<stop  offset="1" style="stop-color:#EBA556"/>
					</linearGradient>
					
						<rect x="624.368" y="564.834" style="fill:url(#SVGID_00000001663768241845326490000015541763183742760326_);" width="259.294" height="201.509"/>
				</g>
			</g>
			<path d="M646.818,264.191c0,2.706-2.193,4.892-4.909,4.892h-51.947c-2.697,0-4.883-2.186-4.883-4.892l0,0
				c0-2.693,2.186-4.879,4.883-4.879h51.947C644.625,259.312,646.818,261.498,646.818,264.191L646.818,264.191z"/>
			
				<linearGradient id="SVGID_00000166655951956678925470000011447614981428540044_" gradientUnits="userSpaceOnUse" x1="615.9349" y1="832.6068" x2="615.9349" y2="843.2776">
				<stop  offset="0" style="stop-color:#FFFFFF"/>
				<stop  offset="1" style="stop-color:#818386"/>
			</linearGradient>
			<path style="fill:url(#SVGID_00000166655951956678925470000011447614981428540044_);" d="M654.432,837.94
				c0,2.948-2.389,5.338-5.335,5.338h-66.324c-2.946,0-5.335-2.39-5.335-5.338l0,0c0-2.944,2.389-5.333,5.335-5.333h66.324
				C652.043,832.607,654.432,834.996,654.432,837.94L654.432,837.94z"/>
		</g>
	</g>
	<g>
		<g>
			<g>
				
					<linearGradient id="SVGID_00000041995035590675385030000002109610179806060464_" gradientUnits="userSpaceOnUse" x1="1145.0717" y1="-3299.4075" x2="1773.3528" y2="-3299.4075" gradientTransform="matrix(0 1 -1 0 -2911.7891 -148.0288)">
					<stop  offset="0" style="stop-color:#414042"/>
					<stop  offset="0.4797" style="stop-color:#242425"/>
					<stop  offset="1" style="stop-color:#000000"/>
				</linearGradient>
				<path style="fill:url(#SVGID_00000041995035590675385030000002109610179806060464_);" d="M203.758,1625.324
					c-9.798,0-17.74-9.197-17.74-20.552V1017.59c0-11.355,7.942-20.547,17.74-20.547h367.731c9.788,0,17.729,9.192,17.729,20.547
					v587.182c0,11.355-7.942,20.552-17.729,20.552H203.758z"/>
				<path style="fill:#58595B;" d="M228.857,1562.074c-8.444,0-15.3-7.671-15.3-17.149v-500.572c0-9.481,6.857-17.152,15.3-17.152
					h317.522c8.45,0,15.292,7.671,15.292,17.152v500.572c0,9.478-6.842,17.149-15.292,17.149H228.857z"/>
				<path d="M230.459,1557.333c-8.364,0-15.156-7.608-15.156-16.982v-496.172c0-9.381,6.792-16.978,15.156-16.978h314.305
					c8.385,0,15.16,7.597,15.16,16.978v496.172c0,9.374-6.775,16.982-15.16,16.982H230.459z"/>
				
					<linearGradient id="SVGID_00000147935856824991384650000002372787103412911807_" gradientUnits="userSpaceOnUse" x1="1180.199" y1="-3300.6401" x2="1700.613" y2="-3300.6401" gradientTransform="matrix(0 1 -1 0 -2911.7891 -148.0288)">
					<stop  offset="0" style="stop-color:#57BCEB"/>
					<stop  offset="1" style="stop-color:#003A5C"/>
				</linearGradient>
				<path style="fill:url(#SVGID_00000147935856824991384650000002372787103412911807_);" d="M236.619,1552.584
					c-8.113,0-14.677-7.448-14.677-16.634V1048.8c0-9.184,6.565-16.63,14.677-16.63h304.466c8.099,0,14.675,7.446,14.675,16.63
					v487.15c0,9.186-6.576,16.634-14.675,16.634H236.619z"/>
				
					<linearGradient id="SVGID_00000006700974574173177480000016937930959678395528_" gradientUnits="userSpaceOnUse" x1="387.6172" y1="1583.0234" x2="387.6172" y2="1594.8396">
					<stop  offset="0" style="stop-color:#FFFFFF"/>
					<stop  offset="1" style="stop-color:#818386"/>
				</linearGradient>
				<path style="fill:url(#SVGID_00000006700974574173177480000016937930959678395528_);" d="M430.254,1588.93
					c0,3.264-2.645,5.909-5.907,5.909h-73.458c-3.262,0-5.909-2.645-5.909-5.909l0,0c0-3.262,2.647-5.907,5.909-5.907h73.458
					C427.609,1583.023,430.254,1585.668,430.254,1588.93L430.254,1588.93z"/>
			</g>
			<path d="M427.458,1011.746c0,3.208-2.598,5.812-5.812,5.812h-61.785c-3.206,0-5.814-2.604-5.814-5.812l0,0
				c0-3.21,2.608-5.816,5.814-5.816h61.785C424.86,1005.93,427.458,1008.536,427.458,1011.746L427.458,1011.746z"/>
		</g>
		<g>
			<rect x="221.942" y="1092.921" style="fill:#FFFFFF;" width="334.026" height="87.538"/>
			
				<linearGradient id="SVGID_00000102513050649624355000000007150072276509105336_" gradientUnits="userSpaceOnUse" x1="221.9421" y1="1180.9052" x2="556.0435" y2="1180.9052">
				<stop  offset="0" style="stop-color:#003A5C"/>
				<stop  offset="0.5806" style="stop-color:#57BCEB"/>
				<stop  offset="1" style="stop-color:#003A5C"/>
			</linearGradient>
			
				<rect x="221.942" y="1174.436" style="fill:url(#SVGID_00000102513050649624355000000007150072276509105336_);" width="334.101" height="12.939"/>
			
				<linearGradient id="SVGID_00000029760911478383885820000000009268791460332216_" gradientUnits="userSpaceOnUse" x1="220.5675" y1="1478.007" x2="554.6689" y2="1478.007">
				<stop  offset="0" style="stop-color:#003A5C"/>
				<stop  offset="0.5806" style="stop-color:#57BCEB"/>
				<stop  offset="1" style="stop-color:#003A5C"/>
			</linearGradient>
			
				<rect x="220.567" y="1440.819" style="fill:url(#SVGID_00000029760911478383885820000000009268791460332216_);" width="334.101" height="74.376"/>
			<rect x="221.942" y="1092.895" style="fill:#003A54;" width="334.101" height="6.522"/>
			<g>
				<g>
					<g>
						<path style="fill:#FFFFFF;" d="M437.819,1087.683h-22.247c-2.426,0-4.383-1.963-4.383-4.381v-13.814
							c0-2.418,1.957-4.392,4.383-4.392h22.247c2.42,0,4.383,1.974,4.383,4.392v13.814
							C442.203,1085.72,440.239,1087.683,437.819,1087.683z M415.573,1065.912c-1.972,0-3.565,1.604-3.565,3.576v13.814
							c0,1.963,1.593,3.565,3.565,3.565h22.247c1.963,0,3.567-1.602,3.567-3.565v-13.814c0-1.972-1.604-3.576-3.567-3.576H415.573z"
							/>
					</g>
					<g>
						<path style="fill:#FFFFFF;" d="M472.035,1087.683H449.78c-2.418,0-4.381-1.963-4.381-4.381v-13.814
							c0-2.418,1.963-4.392,4.381-4.392h22.255c2.418,0,4.381,1.974,4.381,4.392v13.814
							C476.416,1085.72,474.453,1087.683,472.035,1087.683z M449.78,1065.912c-1.963,0-3.558,1.604-3.558,3.576v13.814
							c0,1.963,1.595,3.565,3.558,3.565h22.255c1.963,0,3.559-1.602,3.559-3.565v-13.814c0-1.972-1.595-3.576-3.559-3.576H449.78z"
							/>
					</g>
					<g>
						<path style="fill:#FFFFFF;" d="M505.674,1087.683h-22.238c-2.418,0-4.392-1.963-4.392-4.381v-13.814
							c0-2.418,1.974-4.392,4.392-4.392h22.238c2.418,0,4.401,1.974,4.401,4.392v13.814
							C510.074,1085.72,508.091,1087.683,505.674,1087.683z M483.436,1065.912c-1.972,0-3.573,1.604-3.573,3.576v13.814
							c0,1.963,1.602,3.565,3.573,3.565h22.238c1.972,0,3.574-1.602,3.574-3.565v-13.814c0-1.972-1.602-3.576-3.574-3.576H483.436z"
							/>
					</g>
					<g>
						<path style="fill:#FFFFFF;" d="M538.474,1087.683H516.23c-2.418,0-4.381-1.963-4.381-4.381v-13.814
							c0-2.418,1.963-4.392,4.381-4.392h22.244c2.429,0,4.394,1.974,4.394,4.392v13.814
							C542.868,1085.72,540.903,1087.683,538.474,1087.683z M516.23,1065.912c-1.963,0-3.567,1.604-3.567,3.576v13.814
							c0,1.963,1.604,3.565,3.567,3.565h22.244c1.976,0,3.578-1.602,3.578-3.565v-13.814c0-1.972-1.602-3.576-3.578-3.576H516.23z"
							/>
					</g>
					<g>
						<polygon style="fill:#FFFFFF;" points="426.179,1068.471 420.185,1074.282 432.486,1074.282 						"/>
						<polygon style="fill:#FFFFFF;" points="421.361,1074.687 421.361,1083.224 424.12,1083.224 424.12,1077.2 428.865,1077.2 
							428.865,1083.224 431.319,1083.224 431.319,1074.687 						"/>
					</g>
					<g>
						<rect x="453.916" y="1071.622" style="fill:#FFFFFF;" width="8.47" height="0.693"/>
						<g>
							<g>
								<path style="fill:#FFFFFF;" d="M454.41,1081.261c-0.875,0-1.585-0.71-1.585-1.595v-8.409c0-0.877,0.71-1.586,1.585-1.586
									h7.484c0.881,0,1.604,0.71,1.604,1.586v0.366h0.692v-0.92c0-0.996-0.809-1.801-1.805-1.801h-8.461
									c-1.005,0-1.81,0.805-1.81,1.801v9.519c0,0.992,0.805,1.799,1.81,1.799h3.699v-0.76H454.41z"/>
								<path style="fill:#FFFFFF;" d="M453.916,1074.062h3.708v-0.637c0-0.02,0-0.039,0-0.052h-3.708V1074.062z"/>
								<rect x="453.916" y="1075.114" style="fill:#FFFFFF;" width="3.708" height="0.693"/>
								<rect x="453.916" y="1076.869" style="fill:#FFFFFF;" width="3.708" height="0.684"/>
								<rect x="453.916" y="1078.616" style="fill:#FFFFFF;" width="3.708" height="0.682"/>
								<path style="fill:#FFFFFF;" d="M467.891,1071.622h-3.699h-0.692h-4.069c-0.978,0-1.775,0.784-1.805,1.751
									c0,0.013,0,0.032,0,0.052v0.637v1.052v0.693v1.063v0.684v1.063v0.682v1.963v0.76v0.92c0,1,0.81,1.807,1.805,1.807h8.461
									c0.996,0,1.801-0.807,1.801-1.807v-9.515C469.691,1072.43,468.886,1071.622,467.891,1071.622z M468.999,1082.388
									c0,0.885-0.719,1.595-1.602,1.595h-7.476c-0.881,0-1.595-0.71-1.595-1.595v-0.368v-0.76v-1.963v-0.682v-1.063v-0.684v-1.063
									v-0.693v-1.052v-0.083c0-0.212,0.05-0.42,0.125-0.606c0.236-0.582,0.797-0.98,1.469-0.98h3.578h0.692h3.205
									c0.883,0,1.602,0.71,1.602,1.587V1082.388z"/>
							</g>
							<rect x="459.418" y="1074.345" style="fill:#FFFFFF;" width="8.472" height="0.692"/>
							<rect x="459.418" y="1076.092" style="fill:#FFFFFF;" width="8.472" height="0.693"/>
							<rect x="459.418" y="1077.837" style="fill:#FFFFFF;" width="8.472" height="0.692"/>
							<rect x="459.418" y="1079.592" style="fill:#FFFFFF;" width="8.472" height="0.684"/>
							<rect x="459.418" y="1081.339" style="fill:#FFFFFF;" width="8.472" height="0.682"/>
						</g>
					</g>
					<g>
						<path style="fill:#FFFFFF;" d="M531.609,1072.267c0,2.4-1.909,4.344-4.26,4.344c-2.362,0-4.279-1.944-4.279-4.344
							c0-2.394,1.918-4.335,4.279-4.335C529.699,1067.932,531.609,1069.874,531.609,1072.267z"/>
						<path style="fill:#FFFFFF;" d="M526.732,1077.25c0,0-6.11,0.193-6.857,7.602h14.968
							C534.842,1084.852,533.923,1076.869,526.732,1077.25z"/>
					</g>
				</g>
				<g>
					<path style="fill:#FFFFFF;" d="M498.538,1077.523v-1.983h-1.44c-0.126-1.047-0.552-2.005-1.188-2.788l0.959-0.957l-1.402-1.407
						l-1.072,1.074c-0.569-0.331-1.216-0.571-1.898-0.688v-1.37h-1.974v1.37c-0.758,0.128-1.461,0.407-2.084,0.801l-1.177-1.186
						l-1.413,1.407l1.129,1.132c-0.56,0.749-0.942,1.645-1.063,2.613h-1.424v1.983h1.545c0.145,0.574,0.381,1.115,0.693,1.604
						l-1.195,1.195l1.405,1.405l1.138-1.147c0.625,0.474,1.346,0.818,2.134,1.004v1.864h1.983v-1.76
						c0.957-0.108,1.831-0.454,2.572-0.972l1.023,1.011l1.394-1.405l-1.015-1.005c0.379-0.541,0.656-1.149,0.816-1.794H498.538z
						 M491.518,1079.525c-1.885,0-3.383-1.489-3.383-3.316c0-1.836,1.498-3.314,3.383-3.314c1.872,0,3.379,1.478,3.379,3.314
						C494.897,1078.036,493.39,1079.525,491.518,1079.525z"/>
					<path style="fill:#FFFFFF;" d="M504.62,1073.373v-0.98h-0.701c-0.076-0.523-0.283-1.002-0.608-1.385l0.474-0.484l-0.692-0.691
						l-0.53,0.528c-0.275-0.16-0.606-0.283-0.939-0.342v-0.682h-0.987v0.682c-0.379,0.067-0.732,0.206-1.035,0.4l-0.586-0.586
						l-0.701,0.691l0.569,0.567c-0.286,0.372-0.476,0.814-0.522,1.303h-0.723v0.98h0.769c0.078,0.29,0.19,0.556,0.353,0.801
						l-0.6,0.589l0.703,0.697l0.569-0.563c0.303,0.231,0.654,0.402,1.052,0.493v0.929h0.985v-0.875
						c0.468-0.054,0.905-0.225,1.283-0.483l0.502,0.498l0.693-0.697l-0.502-0.493c0.191-0.271,0.331-0.569,0.407-0.896H504.62z
						 M501.128,1074.365c-0.918,0-1.677-0.736-1.677-1.641c0-0.915,0.76-1.651,1.677-1.651c0.931,0,1.689,0.736,1.689,1.651
						C502.817,1073.629,502.059,1074.365,501.128,1074.365z"/>
				</g>
			</g>
			<g>
				<rect x="251.396" y="1203.128" style="opacity:0.5;fill:#FFFFFF;" width="133.194" height="103.508"/>
				<rect x="393.328" y="1203.128" style="opacity:0.5;fill:#FFFFFF;" width="133.187" height="103.508"/>
			</g>
			<g>
				<rect x="253.191" y="1324.655" style="opacity:0.5;fill:#FFFFFF;" width="133.194" height="103.512"/>
				<rect x="395.121" y="1324.655" style="opacity:0.5;fill:#FFFFFF;" width="133.196" height="103.512"/>
			</g>
			<g>
				<path style="fill:#D1D3D4;" d="M408.488,1125.068c0,6.764-5.39,12.245-12.039,12.245c-6.641,0-12.03-5.481-12.03-12.245
					c0-6.764,5.39-12.246,12.03-12.246C403.099,1112.821,408.488,1118.304,408.488,1125.068z"/>
				<path style="fill:#D1D3D4;" d="M394.722,1139.107c0,0-17.214,0.541-19.34,21.452h42.229
					C417.612,1160.559,415.014,1138.027,394.722,1139.107z"/>
				<g>
					<path style="fill:#D1D3D4;" d="M406.856,1127.25c0.141-0.701,0.208-1.433,0.208-2.182c0-0.686-0.067-1.355-0.191-2.011
						c-0.121,0.71-0.199,1.433-0.199,2.18C406.674,1125.923,406.741,1126.594,406.856,1127.25z"/>
					<path style="fill:#D1D3D4;" d="M418.713,1112.992c-4.363,0-8.167,2.373-10.283,5.901c0.931,1.857,1.469,3.957,1.469,6.175
						c0,2.294-0.569,4.47-1.554,6.366c2.087,3.612,5.946,6.052,10.368,6.052c6.641,0,12.028-5.483,12.028-12.249
						C430.741,1118.475,425.354,1112.992,418.713,1112.992z"/>
				</g>
				<g>
					<path style="fill:#D1D3D4;" d="M419.019,1160.228l0.037,0.331h20.811c0,0-2.589-22.532-22.878-21.452
						c0,0-3.842,0.124-8.122,2.448C417.471,1148.044,418.999,1160.061,419.019,1160.228z"/>
				</g>
			</g>
		</g>
	</g>
	<g>
		
			<linearGradient id="SVGID_00000109030791850827844780000007645272086462681528_" gradientUnits="userSpaceOnUse" x1="1245.8442" y1="560.2775" x2="1674.5488" y2="560.2775">
			<stop  offset="0" style="stop-color:#000000"/>
			<stop  offset="0.4878" style="stop-color:#515254"/>
			<stop  offset="1" style="stop-color:#000000"/>
		</linearGradient>
		<path style="fill:url(#SVGID_00000109030791850827844780000007645272086462681528_);" d="M1266.803,874.418
			c-11.558,0-20.959-9.39-20.959-20.956V267.083c0-11.584,9.4-20.946,20.959-20.946h386.802c11.58,0,20.943,9.361,20.943,20.946
			v586.379c0,11.567-9.364,20.956-20.943,20.956H1266.803z"/>
		
			<linearGradient id="SVGID_00000054253622198643157050000016036042503541665716_" gradientUnits="userSpaceOnUse" x1="1286.0277" y1="556.5729" x2="1633.4277" y2="556.5729">
			<stop  offset="0" style="stop-color:#57BCEB"/>
			<stop  offset="1" style="stop-color:#003A5C"/>
		</linearGradient>
		<path style="fill:url(#SVGID_00000054253622198643157050000016036042503541665716_);" d="M1303.012,825.912
			c-9.376,0-16.985-8.043-16.985-17.952V305.201c0-9.922,7.608-17.967,16.985-17.967h313.433c9.374,0,16.982,8.045,16.982,17.967
			V807.96c0,9.909-7.608,17.952-16.982,17.952H1303.012z"/>
		<path style="fill:#414042;" d="M1501.306,267.652c0,3.383-2.74,6.123-6.134,6.123h-69.948c-3.394,0-6.123-2.74-6.123-6.123l0,0
			c0-3.394,2.73-6.136,6.123-6.136h69.948C1498.565,261.515,1501.306,264.258,1501.306,267.652L1501.306,267.652z"/>
		
			<linearGradient id="SVGID_00000136386452381568825390000011228058209893787790_" gradientUnits="userSpaceOnUse" x1="1460.1954" y1="840.3577" x2="1460.1954" y2="863.9202">
			<stop  offset="0" style="stop-color:#FFFFFF"/>
			<stop  offset="1" style="stop-color:#818386"/>
		</linearGradient>
		<path style="fill:url(#SVGID_00000136386452381568825390000011228058209893787790_);" d="M1498.31,852.141
			c0,6.502-5.275,11.779-11.781,11.779h-52.664c-6.507,0-11.783-5.277-11.783-11.779l0,0c0-6.511,5.277-11.783,11.783-11.783h52.664
			C1493.035,840.358,1498.31,845.63,1498.31,852.141L1498.31,852.141z"/>
	</g>
</g>
</svg>
