<?xml version="1.0" encoding="UTF-8"?>
<svg id="Layer_2" data-name="Layer 2" xmlns="http://www.w3.org/2000/svg" xmlns:xlink="http://www.w3.org/1999/xlink" viewBox="0 0 2024.03 1392.57">
  <defs>
    <style>
      .cls-1 {
        fill: url(#linear-gradient-12);
      }

      .cls-1, .cls-2, .cls-3, .cls-4, .cls-5, .cls-6, .cls-7, .cls-8, .cls-9, .cls-10, .cls-11, .cls-12, .cls-13, .cls-14, .cls-15, .cls-16, .cls-17, .cls-18, .cls-19, .cls-20, .cls-21, .cls-22, .cls-23, .cls-24, .cls-25, .cls-26, .cls-27, .cls-28, .cls-29, .cls-30, .cls-31, .cls-32, .cls-33, .cls-34, .cls-35, .cls-36, .cls-37, .cls-38, .cls-39, .cls-40, .cls-41, .cls-42, .cls-43, .cls-44, .cls-45 {
        stroke-width: 0px;
      }

      .cls-2 {
        fill: url(#linear-gradient-17);
      }

      .cls-3 {
        fill: url(#linear-gradient-19);
      }

      .cls-4 {
        fill: url(#linear-gradient);
      }

      .cls-5 {
        fill: #ec524f;
      }

      .cls-46, .cls-10, .cls-44 {
        opacity: .5;
      }

      .cls-6 {
        fill: url(#linear-gradient-21);
      }

      .cls-7 {
        fill: url(#linear-gradient-6);
      }

      .cls-8 {
        fill: #808285;
      }

      .cls-9 {
        fill: #58595b;
      }

      .cls-10, .cls-22 {
        fill: #fff;
      }

      .cls-11 {
        fill: url(#linear-gradient-15);
      }

      .cls-12 {
        fill: url(#linear-gradient-11);
      }

      .cls-13 {
        fill: url(#linear-gradient-5);
      }

      .cls-14 {
        fill: #fbad35;
      }

      .cls-15 {
        fill: #e67067;
      }

      .cls-16 {
        fill: url(#linear-gradient-13);
      }

      .cls-17 {
        fill: url(#linear-gradient-23);
      }

      .cls-18 {
        fill: url(#linear-gradient-25);
      }

      .cls-19 {
        fill: #003a54;
      }

      .cls-20 {
        fill: url(#linear-gradient-16);
      }

      .cls-21 {
        fill: url(#linear-gradient-22);
      }

      .cls-23 {
        fill: url(#linear-gradient-20);
      }

      .cls-24 {
        fill: url(#linear-gradient-14);
      }

      .cls-25 {
        fill: url(#linear-gradient-2);
      }

      .cls-26 {
        fill: #a7a9ac;
      }

      .cls-27 {
        fill: url(#linear-gradient-7);
      }

      .cls-28 {
        fill: url(#linear-gradient-3);
      }

      .cls-29 {
        fill: #231f20;
      }

      .cls-30 {
        fill: url(#linear-gradient-9);
      }

      .cls-31 {
        fill: url(#linear-gradient-27);
      }

      .cls-32 {
        fill: #d1d3d4;
      }

      .cls-33 {
        fill: #414042;
      }

      .cls-34 {
        fill: url(#linear-gradient-8);
      }

      .cls-35 {
        fill: #fbb040;
      }

      .cls-36 {
        fill: url(#linear-gradient-24);
      }

      .cls-37 {
        fill: url(#linear-gradient-26);
      }

      .cls-38 {
        fill: url(#linear-gradient-18);
      }

      .cls-39 {
        fill: #0b0a11;
      }

      .cls-40 {
        fill: url(#linear-gradient-30);
      }

      .cls-41 {
        fill: url(#linear-gradient-29);
      }

      .cls-42 {
        fill: url(#linear-gradient-28);
      }

      .cls-43 {
        fill: url(#linear-gradient-10);
      }

      .cls-44 {
        fill: #bcbec0;
      }

      .cls-45 {
        fill: url(#linear-gradient-4);
      }
    </style>
    <linearGradient id="linear-gradient" x1="-1234.32" y1="-4121.13" x2="-586.82" y2="-4126.5" gradientTransform="translate(-2549.94 1977.99) rotate(90)" gradientUnits="userSpaceOnUse">
      <stop offset="0" stop-color="#414042"/>
      <stop offset=".58" stop-color="#2c292b"/>
      <stop offset="1" stop-color="#231f20"/>
    </linearGradient>
    <linearGradient id="linear-gradient-2" x1="-1165.1" y1="-4123.91" x2="-644.4" y2="-4123.91" gradientTransform="translate(-2549.94 1977.99) rotate(90)" gradientUnits="userSpaceOnUse">
      <stop offset="0" stop-color="#fff"/>
      <stop offset="1" stop-color="#454547"/>
    </linearGradient>
    <linearGradient id="linear-gradient-3" x1="-1168.63" y1="-4123.9" x2="-647.92" y2="-4123.9" gradientTransform="translate(-2549.94 1977.99) rotate(90)" gradientUnits="userSpaceOnUse">
      <stop offset="0" stop-color="#fff"/>
      <stop offset="1" stop-color="#818386"/>
    </linearGradient>
    <linearGradient id="linear-gradient-4" x1="1186.68" y1="1004.39" x2="1961.58" y2="1004.39" gradientUnits="userSpaceOnUse">
      <stop offset="0" stop-color="#5392b2"/>
      <stop offset=".53" stop-color="#006f96"/>
      <stop offset="1" stop-color="#0f4767"/>
    </linearGradient>
    <linearGradient id="linear-gradient-5" x1="1227.61" y1="1172.59" x2="1384.66" y2="1172.59" gradientUnits="userSpaceOnUse">
      <stop offset=".19" stop-color="#a92934"/>
      <stop offset="1" stop-color="#ec524f"/>
    </linearGradient>
    <linearGradient id="linear-gradient-6" x1="1589.02" y1="1172.59" x2="1746.07" y2="1172.59" xlink:href="#linear-gradient-4"/>
    <linearGradient id="linear-gradient-7" x1="554.08" y1="1079.21" x2="1006.03" y2="1075.46" gradientTransform="matrix(1,0,0,1,0,0)" xlink:href="#linear-gradient"/>
    <linearGradient id="linear-gradient-8" x1="611.79" y1="1059.65" x2="963.69" y2="1059.65" gradientTransform="matrix(1,0,0,1,0,0)" xlink:href="#linear-gradient-2"/>
    <linearGradient id="linear-gradient-9" x1="738.33" y1="1345.45" x2="848.98" y2="1345.45" gradientUnits="userSpaceOnUse">
      <stop offset="0" stop-color="#fff"/>
      <stop offset=".02" stop-color="#f1f1f1"/>
      <stop offset=".12" stop-color="#c1c0c1"/>
      <stop offset=".22" stop-color="#979595"/>
      <stop offset=".33" stop-color="#737071"/>
      <stop offset=".44" stop-color="#565353"/>
      <stop offset=".56" stop-color="#3f3c3c"/>
      <stop offset=".68" stop-color="#2f2b2c"/>
      <stop offset=".82" stop-color="#252223"/>
      <stop offset="1" stop-color="#231f20"/>
    </linearGradient>
    <linearGradient id="linear-gradient-10" x1="611.79" y1="1059.65" x2="963.69" y2="1059.65" gradientTransform="matrix(1,0,0,1,0,0)" xlink:href="#linear-gradient-3"/>
    <linearGradient id="linear-gradient-11" x1="611.74" y1="948.97" x2="963.48" y2="948.97" xlink:href="#linear-gradient-4"/>
    <linearGradient id="linear-gradient-12" x1="664.59" y1="1066.15" x2="749.06" y2="1066.15" xlink:href="#linear-gradient-5"/>
    <linearGradient id="linear-gradient-13" x1="664.86" y1="1225.49" x2="749.33" y2="1225.49" xlink:href="#linear-gradient-4"/>
    <linearGradient id="linear-gradient-14" x1="216.73" y1="-5157.79" x2="845.02" y2="-5157.79" gradientTransform="translate(-3335.36 -216.73) rotate(90)" xlink:href="#linear-gradient"/>
    <linearGradient id="linear-gradient-15" x1="251.86" y1="-5159.02" x2="772.28" y2="-5159.02" gradientTransform="translate(-3335.36 -216.73) rotate(90)" gradientUnits="userSpaceOnUse">
      <stop offset="0" stop-color="#57bceb"/>
      <stop offset="1" stop-color="#003a5c"/>
    </linearGradient>
    <linearGradient id="linear-gradient-16" x1="1822.43" y1="581.06" x2="1822.43" y2="607.58" gradientTransform="matrix(1,0,0,1,0,0)" xlink:href="#linear-gradient-3"/>
    <linearGradient id="linear-gradient-17" x1="2533.18" y1="-7936.03" x2="3393.03" y2="-7936.03" gradientTransform="translate(3393.03 -7630.72) rotate(-180)" gradientUnits="userSpaceOnUse">
      <stop offset="0" stop-color="#262626"/>
      <stop offset="1" stop-color="#000"/>
    </linearGradient>
    <linearGradient id="linear-gradient-18" x1="0" y1="578.9" x2="859.85" y2="578.9" gradientUnits="userSpaceOnUse">
      <stop offset="0" stop-color="#000"/>
      <stop offset=".58" stop-color="#262626"/>
      <stop offset="1" stop-color="#000"/>
    </linearGradient>
    <linearGradient id="linear-gradient-19" x1="2572.31" y1="-7937.47" x2="3353.89" y2="-7937.47" gradientTransform="translate(3393.03 -7630.72) rotate(-180)" gradientUnits="userSpaceOnUse">
      <stop offset="0" stop-color="#fff"/>
      <stop offset="1" stop-color="#aeb0b2"/>
    </linearGradient>
    <linearGradient id="linear-gradient-20" x1="162.06" y1="431.53" x2="421.35" y2="431.53" gradientTransform="matrix(1,0,0,1,0,0)" xlink:href="#linear-gradient-15"/>
    <linearGradient id="linear-gradient-21" x1="438.36" y1="431.53" x2="697.65" y2="431.53" gradientUnits="userSpaceOnUse">
      <stop offset=".2" stop-color="#c17d45"/>
      <stop offset="1" stop-color="#eba556"/>
    </linearGradient>
    <linearGradient id="linear-gradient-22" x1="429.93" y1="598.55" x2="429.93" y2="609.22" gradientTransform="matrix(1,0,0,1,0,0)" xlink:href="#linear-gradient-3"/>
    <linearGradient id="linear-gradient-23" x1="967.64" y1="-3545.54" x2="1595.92" y2="-3545.54" gradientTransform="translate(-3335.36 -216.73) rotate(90)" xlink:href="#linear-gradient"/>
    <linearGradient id="linear-gradient-24" x1="1002.77" y1="-3546.78" x2="1523.18" y2="-3546.78" xlink:href="#linear-gradient-15"/>
    <linearGradient id="linear-gradient-25" x1="210.19" y1="1336.89" x2="210.19" y2="1348.7" gradientTransform="matrix(1,0,0,1,0,0)" xlink:href="#linear-gradient-3"/>
    <linearGradient id="linear-gradient-26" x1="44.51" y1="934.77" x2="378.61" y2="934.77" gradientUnits="userSpaceOnUse">
      <stop offset="0" stop-color="#003a5c"/>
      <stop offset=".58" stop-color="#57bceb"/>
      <stop offset="1" stop-color="#003a5c"/>
    </linearGradient>
    <linearGradient id="linear-gradient-27" x1="43.14" y1="1231.87" x2="377.24" y2="1231.87" xlink:href="#linear-gradient-26"/>
    <linearGradient id="linear-gradient-28" x1="1068.41" y1="314.14" x2="1497.12" y2="314.14" gradientUnits="userSpaceOnUse">
      <stop offset="0" stop-color="#231f20"/>
      <stop offset=".49" stop-color="#515254"/>
      <stop offset="1" stop-color="#231f20"/>
    </linearGradient>
    <linearGradient id="linear-gradient-29" x1="1108.6" y1="310.44" x2="1456" y2="310.44" gradientTransform="matrix(1,0,0,1,0,0)" xlink:href="#linear-gradient-15"/>
    <linearGradient id="linear-gradient-30" x1="1282.76" y1="594.22" x2="1282.76" y2="617.78" gradientTransform="matrix(1,0,0,1,0,0)" xlink:href="#linear-gradient-3"/>
  </defs>
  <g id="Capa_1" data-name="Capa 1">
    <g>
      <g>
        <path class="cls-4" d="m1123.91,787.13c0-12.6,10.22-22.84,22.83-22.84h854.46c12.61,0,22.83,10.23,22.83,22.84v582.61c0,12.61-10.22,22.83-22.83,22.83h-854.46c-12.61,0-22.83-10.22-22.83-22.83v-582.61Z"/>
        <path class="cls-39" d="m1166.58,813.77c0-11.45,8.86-20.73,19.79-20.73h775.21c10.92,0,19.78,9.29,19.78,20.73v518.94c0,11.45-8.86,20.74-19.78,20.74h-775.21c-10.93,0-19.79-9.29-19.79-20.74v-518.94Z"/>
        <path class="cls-25" d="m1186.62,832.55c0-10.86,8.42-19.66,18.78-19.66h737.14c10.37,0,18.77,8.8,18.77,19.66v481.38c-.01,10.86-8.4,19.66-18.77,19.66h-737.15c-10.36,0-18.77-8.81-18.77-19.66v-481.38Z"/>
        <g>
          <path class="cls-28" d="m1186.62,829.02c0-10.86,8.41-19.66,18.77-19.66h737.15c10.37,0,18.76,8.8,18.76,19.66v481.39c0,10.86-8.4,19.66-18.77,19.66h-737.14c-10.36,0-18.77-8.8-18.77-19.66v-481.39Z"/>
          <rect class="cls-26" x="1186.68" y="958.68" width="771.96" height="118.01"/>
          <rect class="cls-22" x="1768.57" y="1103.31" width="156.99" height="25.98"/>
          <rect class="cls-22" x="1768.57" y="1143.02" width="156.99" height="25.98"/>
          <rect class="cls-22" x="1768.57" y="1179.83" width="156.99" height="25.98"/>
          <rect class="cls-22" x="1768.57" y="1215.88" width="156.99" height="25.98"/>
          <path class="cls-8" d="m1749.43,920.75c0,3.77-3.05,6.82-6.81,6.82h-38.1c-3.76,0-6.81-3.05-6.81-6.82v-23.65c0-3.78,3.05-6.83,6.81-6.83h38.1c3.76,0,6.81,3.05,6.81,6.83v23.65Z"/>
          <path class="cls-8" d="m1808.03,920.75c0,3.77-3.05,6.82-6.81,6.82h-38.1c-3.75,0-6.81-3.05-6.81-6.82v-23.65c0-3.78,3.06-6.83,6.81-6.83h38.1c3.76,0,6.81,3.05,6.81,6.83v23.65Z"/>
          <path class="cls-8" d="m1865.67,920.75c0,3.77-3.06,6.82-6.82,6.82h-38.09c-3.77,0-6.82-3.05-6.82-6.82v-23.65c0-3.78,3.05-6.83,6.82-6.83h38.09c3.76,0,6.82,3.05,6.82,6.83v23.65Z"/>
          <path class="cls-8" d="m1921.85,920.75c0,3.77-3.05,6.82-6.82,6.82h-38.09c-3.77,0-6.82-3.05-6.82-6.82v-23.65c0-3.78,3.05-6.83,6.82-6.83h38.09c3.77,0,6.82,3.05,6.82,6.83v23.65Z"/>
          <rect class="cls-45" x="1186.68" y="940.12" width="774.89" height="128.55"/>
          <g>
            <path class="cls-22" d="m1455.8,963.69c-.62,0-1.24.02-1.86.04v1.43c.62-.03,1.24-.04,1.86-.04,21.89,0,39.7,17.8,39.7,39.7s-17.81,39.71-39.7,39.71c-.62,0-1.24-.02-1.86-.05v1.42c.62.03,1.24.05,1.86.05,22.68,0,41.13-18.45,41.13-41.13s-18.45-41.13-41.13-41.13Z"/>
            <path class="cls-22" d="m1455.8,963.69c-.63,0-1.25.03-1.86.09v1.43c.61-.05,1.23-.09,1.86-.09,15.28,0,27.71,17.8,27.71,39.7s-12.43,39.71-27.71,39.71c-.63,0-1.25-.04-1.86-.1v1.43c.61.05,1.23.09,1.86.09,16.06,0,29.13-18.45,29.13-41.13s-13.07-41.13-29.13-41.13Z"/>
            <path class="cls-22" d="m1455.79,963.69c-.64,0-1.26.17-1.86.5v1.7c.62-.5,1.24-.77,1.86-.77,4.81,0,9.97,15.95,9.97,39.7s-5.16,39.71-9.97,39.71c-.62,0-1.24-.27-1.86-.78v1.71c.6.32,1.22.5,1.86.5,7.14,0,11.4-20.91,11.4-41.13s-4.26-41.13-11.4-41.13Z"/>
            <path class="cls-22" d="m1455.8,975.69c-.62,0-1.24.02-1.86.03v1.42c.62-.02,1.24-.03,1.86-.03,21.89,0,39.7,12.43,39.7,27.71s-17.81,27.7-39.7,27.7c-.62,0-1.24,0-1.86-.03v1.43c.62.02,1.24.03,1.86.03,22.68,0,41.13-13.06,41.13-29.13s-18.45-29.13-41.13-29.13Z"/>
            <path class="cls-22" d="m1455.8,994.25c-.62,0-1.24,0-1.86.01v1.43c.61,0,1.23,0,1.86,0,23.4,0,39.7,4.82,39.7,9.14s-16.3,9.15-39.7,9.15c-.63,0-1.25,0-1.86-.02v1.43c.62,0,1.24,0,1.86,0,19.94,0,41.13-3.71,41.13-10.57s-21.19-10.58-41.13-10.58Z"/>
          </g>
          <g>
            <polygon class="cls-22" points="1722.71 895.35 1712.42 905.31 1733.51 905.31 1722.71 895.35"/>
            <polygon class="cls-22" points="1714.44 906 1714.44 920.62 1719.17 920.62 1719.17 910.31 1727.29 910.31 1727.29 920.62 1731.49 920.62 1731.49 906 1714.44 906"/>
          </g>
          <g>
            <path class="cls-22" d="m1856.25,921.86c-.85,1.16-2.32,1.51-3.3.8l-10.13-7.37c-.99-.71-1.1-2.24-.26-3.39h0c.84-1.16,2.32-1.51,3.3-.8l10.13,7.36c.98.72,1.1,2.23.26,3.39h0Z"/>
            <path class="cls-22" d="m1825.78,914.08c4.25,4.63,11.5,4.87,16.19.56,4.68-4.31,5.02-11.55.77-16.18-4.27-4.63-11.51-4.87-16.2-.56-4.69,4.31-5.02,11.56-.76,16.18Zm2.28-14.54c3.78-3.48,9.63-3.27,13.07.46,3.44,3.73,3.15,9.58-.62,13.06-3.78,3.48-9.63,3.28-13.07-.45-3.44-3.73-3.16-9.58.62-13.06Z"/>
          </g>
          <g>
            <rect class="cls-22" x="1770.2" y="900.76" width="14.51" height="1.18"/>
            <g>
              <g>
                <path class="cls-22" d="m1771.05,917.26c-1.51,0-2.73-1.22-2.73-2.72v-14.4c0-1.51,1.22-2.73,2.73-2.73h12.81c1.51,0,2.73,1.22,2.73,2.73v.63h1.2v-1.58c0-1.71-1.37-3.08-3.08-3.08h-14.5c-1.71,0-3.1,1.38-3.1,3.08v16.3c0,1.71,1.38,3.09,3.1,3.09h6.34v-1.31h-5.5Z"/>
                <path class="cls-22" d="m1770.2,904.93h6.35v-1.18h-6.35v1.18Z"/>
                <rect class="cls-22" x="1770.2" y="906.74" width="6.35" height="1.18"/>
                <rect class="cls-22" x="1770.2" y="909.74" width="6.35" height="1.18"/>
                <rect class="cls-22" x="1770.2" y="912.73" width="6.35" height="1.18"/>
                <path class="cls-22" d="m1794.14,900.76h-14.5c-1.67,0-3.03,1.33-3.08,2.99v16.4c0,1.7,1.38,3.08,3.08,3.08h14.5c1.71,0,3.08-1.38,3.08-3.08v-16.31c0-1.7-1.37-3.08-3.08-3.08Zm1.88,18.44c0,1.51-1.22,2.72-2.73,2.72h-12.81c-1.5,0-2.73-1.22-2.73-2.72v-14.41c0-.36.08-.72.21-1.04.4-.99,1.38-1.68,2.52-1.68h12.81c1.51,0,2.73,1.22,2.73,2.72v14.41Z"/>
              </g>
              <rect class="cls-22" x="1779.63" y="905.42" width="14.51" height="1.18"/>
              <rect class="cls-22" x="1779.63" y="908.41" width="14.51" height="1.19"/>
              <rect class="cls-22" x="1779.63" y="911.4" width="14.51" height="1.18"/>
              <rect class="cls-22" x="1779.63" y="914.39" width="14.51" height="1.18"/>
              <rect class="cls-22" x="1779.63" y="917.39" width="14.51" height="1.18"/>
            </g>
          </g>
          <g>
            <path class="cls-22" d="m1903.26,901.87c0,4.11-3.27,7.43-7.31,7.43s-7.29-3.33-7.29-7.43,3.27-7.44,7.29-7.44,7.31,3.33,7.31,7.44Z"/>
            <path class="cls-22" d="m1894.91,910.39s-10.45.33-11.74,13.02h25.64s-1.58-13.67-13.9-13.02Z"/>
          </g>
          <rect class="cls-13" x="1227.61" y="1103.31" width="157.05" height="138.55"/>
          <rect class="cls-14" x="1412.25" y="1103.31" width="157.05" height="138.55"/>
          <rect class="cls-7" x="1589.02" y="1103.31" width="157.05" height="138.55"/>
          <polygon class="cls-22" points="1584.69 998.29 1539.78 952.69 1539.78 981.91 1515.98 981.89 1515.98 1022.68 1539.87 1022.62 1539.68 1051.5 1584.69 998.29"/>
          <polygon class="cls-22" points="1649.75 999.14 1614.84 963.69 1614.84 986.41 1596.35 986.39 1596.35 1018.1 1614.91 1018.05 1614.77 1040.5 1649.75 999.14"/>
          <polygon class="cls-22" points="1704.44 999.9 1678.58 973.66 1678.58 990.48 1664.88 990.46 1664.88 1013.95 1678.64 1013.91 1678.53 1030.53 1704.44 999.9"/>
        </g>
      </g>
      <g>
        <path class="cls-27" d="m584.42,1391.41c-8.8,0-15.94-7.13-15.94-15.93v-596.41c0-8.8,7.14-15.94,15.94-15.94h406.66c8.79,0,15.94,7.14,15.94,15.94v596.41c0,8.8-7.14,15.93-15.94,15.93h-406.66Z"/>
        <path class="cls-39" d="m612.38,1313.22c-7.45,0-13.48-5.76-13.48-12.87v-481.4c0-7.1,6.03-12.86,13.48-12.86h350.73c7.45,0,13.48,5.76,13.48,12.86v481.4c0,7.1-6.03,12.87-13.48,12.87h-350.73Z"/>
        <path class="cls-34" d="m624.59,1300.18c-7.07,0-12.79-5.47-12.79-12.21v-456.65c0-6.74,5.73-12.21,12.79-12.21h326.31c7.06,0,12.79,5.47,12.79,12.21v456.65c0,6.74-5.73,12.21-12.79,12.21h-326.31Z"/>
        <g>
          <path class="cls-30" d="m848.98,1353.7c0,4.56-3.77,8.25-8.4,8.25h-93.85c-4.63,0-8.4-3.69-8.4-8.25v-16.5c0-4.55,3.77-8.24,8.4-8.24h93.85c4.63,0,8.4,3.69,8.4,8.24v16.5Z"/>
          <path class="cls-29" d="m845.95,1352.92c0,4-3.56,7.24-7.96,7.24h-88.8c-4.39,0-7.95-3.24-7.95-7.24v-14.49c0-4,3.56-7.25,7.95-7.25h88.8c4.39,0,7.96,3.25,7.96,7.25v14.49Z"/>
        </g>
        <g>
          <path class="cls-29" d="m841.19,787.82c0,1.9-3.57,3.44-7.95,3.44h-88.81c-4.39,0-7.95-1.54-7.95-3.44v-6.87c0-1.9,3.55-3.43,7.95-3.43h88.81c4.39,0,7.95,1.54,7.95,3.43v6.87Z"/>
          <path class="cls-29" d="m867.88,784.38c0,4.6-3.92,8.32-8.75,8.32s-8.75-3.72-8.75-8.32,3.92-8.31,8.75-8.31,8.75,3.72,8.75,8.31Z"/>
        </g>
        <g>
          <path class="cls-43" d="m624.59,1300.18c-7.07,0-12.79-5.47-12.79-12.21v-456.65c0-6.74,5.73-12.21,12.79-12.21h326.31c7.06,0,12.79,5.47,12.79,12.21v456.65c0,6.74-5.73,12.21-12.79,12.21h-326.31Z"/>
          <rect class="cls-26" x="611.74" y="906.83" width="351.61" height="108.76"/>
          <rect class="cls-22" x="771.58" y="1029.97" width="144.68" height="23.94"/>
          <rect class="cls-22" x="771.58" y="1066.56" width="144.68" height="23.95"/>
          <rect class="cls-22" x="771.58" y="1100.49" width="144.68" height="23.95"/>
          <rect class="cls-22" x="771.58" y="1133.71" width="144.68" height="23.95"/>
          <rect class="cls-22" x="772.67" y="1167.29" width="144.68" height="23.95"/>
          <rect class="cls-22" x="771.32" y="1200.07" width="144.68" height="23.95"/>
          <rect class="cls-22" x="771.58" y="1233.65" width="144.68" height="23.94"/>
          <path class="cls-8" d="m823.78,878.63c0,2.81-2.28,5.09-5.1,5.09h-28.47c-2.81,0-5.09-2.28-5.09-5.09v-17.68c0-2.82,2.28-5.1,5.09-5.1h28.47c2.82,0,5.1,2.28,5.1,5.1v17.68Z"/>
          <path class="cls-8" d="m867.57,878.63c0,2.81-2.28,5.09-5.1,5.09h-28.46c-2.81,0-5.1-2.28-5.1-5.09v-17.68c0-2.82,2.29-5.1,5.1-5.1h28.46c2.82,0,5.1,2.28,5.1,5.1v17.68Z"/>
          <path class="cls-8" d="m910.65,878.63c0,2.81-2.28,5.09-5.09,5.09h-28.47c-2.81,0-5.09-2.28-5.09-5.09v-17.68c0-2.82,2.28-5.1,5.09-5.1h28.47c2.81,0,5.09,2.28,5.09,5.1v17.68Z"/>
          <path class="cls-8" d="m952.63,878.63c0,2.81-2.28,5.09-5.1,5.09h-28.46c-2.81,0-5.1-2.28-5.1-5.09v-17.68c0-2.82,2.28-5.1,5.1-5.1h28.46c2.82,0,5.1,2.28,5.1,5.1v17.68Z"/>
          <rect class="cls-12" x="611.74" y="889.73" width="351.74" height="118.47"/>
          <g>
            <path class="cls-22" d="m754.85,922c-.33,0-.66,0-1,.03v.76c.34-.02.66-.03,1-.03,11.72,0,21.26,9.54,21.26,21.27s-9.54,21.26-21.26,21.26c-.33,0-.66,0-1-.03v.77c.34.01.66.02,1,.02,12.14,0,22.03-9.87,22.03-22.02s-9.88-22.03-22.03-22.03Z"/>
            <path class="cls-22" d="m754.85,922c-.34,0-.66.02-1,.05v.77c.33-.03.66-.06,1-.06,8.19,0,14.84,9.54,14.84,21.27s-6.65,21.26-14.84,21.26c-.34,0-.66-.02-1-.05v.76c.33.03.66.05,1,.05,8.61,0,15.6-9.87,15.6-22.02s-6.99-22.03-15.6-22.03Z"/>
            <path class="cls-22" d="m754.85,922c-.34,0-.67.1-1,.26v.91c.34-.27.66-.42,1-.42,2.58,0,5.34,8.55,5.34,21.27s-2.76,21.26-5.34,21.26c-.33,0-.66-.14-1-.41v.91c.32.18.66.26,1,.26,3.82,0,6.1-11.19,6.1-22.02s-2.27-22.03-6.1-22.03Z"/>
            <path class="cls-22" d="m754.85,928.42c-.33,0-.66,0-1,.02v.76c.34,0,.66-.02,1-.02,11.72,0,21.26,6.65,21.26,14.84s-9.54,14.83-21.26,14.83c-.33,0-.66,0-1-.01v.77c.34.01.66.01,1,.01,12.14,0,22.03-7,22.03-15.59s-9.88-15.6-22.03-15.6Z"/>
            <path class="cls-22" d="m754.85,938.36c-.33,0-.66,0-1,0v.76h1c12.53,0,21.26,2.58,21.26,4.9s-8.74,4.9-21.26,4.9c-.34,0-.66,0-1,0v.76c.34,0,.66,0,1,0,10.68,0,22.03-1.98,22.03-5.66s-11.34-5.66-22.03-5.66Z"/>
          </g>
          <g>
            <polygon class="cls-22" points="803.8 859.64 796.12 867.08 811.89 867.08 803.8 859.64"/>
            <polygon class="cls-22" points="797.63 867.6 797.63 878.52 801.17 878.52 801.17 870.82 807.23 870.82 807.23 878.52 810.38 878.52 810.38 867.6 797.63 867.6"/>
          </g>
          <g>
            <path class="cls-22" d="m903.61,879.45c-.63.86-1.73,1.13-2.47.6l-7.57-5.51c-.74-.53-.82-1.67-.2-2.53h0c.63-.86,1.74-1.13,2.47-.59l7.58,5.5c.73.53.82,1.67.19,2.53h0Z"/>
            <path class="cls-22" d="m880.84,873.64c3.18,3.46,8.6,3.64,12.1.42,3.5-3.22,3.76-8.64.58-12.09-3.18-3.46-8.6-3.65-12.1-.42-3.5,3.23-3.75,8.64-.57,12.09Zm1.71-10.86c2.82-2.61,7.2-2.45,9.77.34,2.56,2.79,2.36,7.16-.47,9.76-2.82,2.6-7.19,2.45-9.76-.33-2.57-2.8-2.36-7.16.46-9.77Z"/>
          </g>
          <g>
            <rect class="cls-22" x="839.3" y="863.68" width="10.85" height=".88"/>
            <g>
              <g>
                <path class="cls-22" d="m839.93,876.01c-1.12,0-2.03-.91-2.03-2.04v-10.76c0-1.13.92-2.04,2.03-2.04h9.58c1.12,0,2.03.91,2.03,2.04v.47h.9v-1.18c0-1.28-1.03-2.31-2.3-2.31h-10.84c-1.28,0-2.31,1.03-2.31,2.31v12.19c0,1.27,1.03,2.3,2.31,2.3h4.74v-.98h-4.12Z"/>
                <path class="cls-22" d="m839.3,866.8h4.75v-.89h-4.75v.89Z"/>
                <rect class="cls-22" x="839.3" y="868.15" width="4.75" height=".89"/>
                <rect class="cls-22" x="839.3" y="870.39" width="4.75" height=".87"/>
                <rect class="cls-22" x="839.3" y="872.62" width="4.75" height=".89"/>
                <path class="cls-22" d="m857.19,863.68h-10.84c-1.25,0-2.26,1-2.3,2.23v12.25c0,1.28,1.03,2.31,2.3,2.31h10.84c1.27,0,2.3-1.03,2.3-2.31v-12.18c0-1.27-1.03-2.3-2.3-2.3Zm1.4,13.78c0,1.13-.92,2.04-2.03,2.04h-9.58c-1.12,0-2.03-.91-2.03-2.04v-10.76c0-.28.05-.54.15-.78.31-.73,1.03-1.25,1.88-1.25h9.58c1.12,0,2.03.91,2.03,2.03v10.76Z"/>
              </g>
              <rect class="cls-22" x="846.35" y="867.17" width="10.84" height=".88"/>
              <rect class="cls-22" x="846.35" y="869.4" width="10.84" height=".88"/>
              <rect class="cls-22" x="846.35" y="871.63" width="10.84" height=".89"/>
              <rect class="cls-22" x="846.35" y="873.88" width="10.84" height=".88"/>
              <rect class="cls-22" x="846.35" y="876.11" width="10.84" height=".89"/>
            </g>
          </g>
          <g>
            <path class="cls-22" d="m938.74,864.51c0,3.06-2.44,5.56-5.46,5.56s-5.45-2.49-5.45-5.56,2.44-5.56,5.45-5.56,5.46,2.48,5.46,5.56Z"/>
            <path class="cls-22" d="m932.5,870.88s-7.82.24-8.78,9.73h19.17s-1.19-10.22-10.39-9.73Z"/>
          </g>
          <rect class="cls-1" x="664.59" y="1028.89" width="84.47" height="74.52"/>
          <rect class="cls-14" x="664.63" y="1107.92" width="84.47" height="74.53"/>
          <rect class="cls-16" x="664.86" y="1188.23" width="84.48" height="74.53"/>
          <polygon class="cls-22" points="823.87 940.52 799.83 916.11 799.83 931.76 787.08 931.74 787.08 953.59 799.87 953.55 799.77 969.02 823.87 940.52"/>
          <polygon class="cls-22" points="858.71 940.98 840.02 922 840.02 934.16 830.11 934.15 830.11 951.13 840.05 951.1 839.98 963.12 858.71 940.98"/>
          <polygon class="cls-22" points="887.99 941.39 874.15 927.34 874.15 936.34 866.81 936.33 866.81 948.9 874.18 948.89 874.12 957.79 887.99 941.39"/>
        </g>
      </g>
      <g>
        <g>
          <g>
            <path class="cls-24" d="m1638.57,628.28c-9.8,0-17.74-9.2-17.74-20.55V20.55c0-11.35,7.94-20.55,17.74-20.55h367.73c9.79,0,17.73,9.19,17.73,20.55v587.19c0,11.34-7.94,20.55-17.73,20.55h-367.73Z"/>
            <path class="cls-9" d="m1663.67,565.04c-8.45,0-15.3-7.68-15.3-17.16V47.31c0-9.48,6.86-17.15,15.3-17.15h317.52c8.45,0,15.29,7.68,15.29,17.15v500.57c0,9.48-6.84,17.16-15.29,17.16h-317.52Z"/>
            <path class="cls-29" d="m1665.27,560.29c-8.37,0-15.16-7.61-15.16-16.98V47.13c0-9.37,6.79-16.97,15.16-16.97h314.3c8.39,0,15.16,7.6,15.16,16.97v496.18c0,9.37-6.77,16.98-15.16,16.98h-314.3Z"/>
            <path class="cls-11" d="m1671.43,555.55c-8.11,0-14.68-7.45-14.68-16.64V51.75c0-9.18,6.57-16.63,14.68-16.63h304.46c8.1,0,14.67,7.44,14.67,16.63v487.16c0,9.18-6.58,16.64-14.67,16.64h-304.46Z"/>
            <path class="cls-20" d="m1865.33,594.32c0,7.32-5.94,13.26-13.26,13.26h-59.28c-7.32,0-13.26-5.94-13.26-13.26h0c0-7.32,5.94-13.26,13.26-13.26h59.28c7.32,0,13.26,5.94,13.26,13.26h0Z"/>
          </g>
          <path class="cls-29" d="m1862.27,14.7c0,3.21-2.6,5.81-5.82,5.81h-61.78c-3.2,0-5.82-2.6-5.82-5.81h0c0-3.21,2.61-5.81,5.82-5.81h61.78c3.22,0,5.82,2.6,5.82,5.81h0Z"/>
        </g>
        <g>
          <rect class="cls-10" x="1656.75" y="452.8" width="333.82" height="56.46"/>
          <g>
            <g>
              <path class="cls-22" d="m1820.11,105.72h-32.62c-3.56,0-6.43-2.88-6.43-6.43v-20.26c0-3.55,2.87-6.44,6.43-6.44h32.62c3.55,0,6.43,2.89,6.43,6.44v20.26c0,3.55-2.88,6.43-6.43,6.43Zm-32.62-31.93c-2.9,0-5.23,2.35-5.23,5.24v20.26c0,2.89,2.33,5.24,5.23,5.24h32.62c2.88,0,5.23-2.35,5.23-5.24v-20.26c0-2.89-2.35-5.24-5.23-5.24h-32.62Z"/>
              <path class="cls-22" d="m1870.29,105.72h-32.64c-3.55,0-6.43-2.88-6.43-6.43v-20.26c0-3.55,2.88-6.44,6.43-6.44h32.64c3.55,0,6.43,2.89,6.43,6.44v20.26c0,3.55-2.88,6.43-6.43,6.43Zm-32.64-31.93c-2.88,0-5.21,2.35-5.21,5.24v20.26c0,2.89,2.33,5.24,5.21,5.24h32.64c2.88,0,5.22-2.35,5.22-5.24v-20.26c0-2.89-2.34-5.24-5.22-5.24h-32.64Z"/>
              <path class="cls-22" d="m1919.63,105.72h-32.61c-3.55,0-6.44-2.88-6.44-6.43v-20.26c0-3.55,2.89-6.44,6.44-6.44h32.61c3.55,0,6.46,2.89,6.46,6.44v20.26c0,3.55-2.91,6.43-6.46,6.43Zm-32.61-31.93c-2.89,0-5.24,2.35-5.24,5.24v20.26c0,2.89,2.35,5.24,5.24,5.24h32.61c2.9,0,5.25-2.35,5.25-5.24v-20.26c0-2.89-2.35-5.24-5.25-5.24h-32.61Z"/>
              <path class="cls-22" d="m1967.74,105.72h-32.63c-3.55,0-6.43-2.88-6.43-6.43v-20.26c0-3.55,2.88-6.44,6.43-6.44h32.63c3.56,0,6.44,2.89,6.44,6.44v20.26c0,3.55-2.88,6.43-6.44,6.43Zm-32.63-31.93c-2.88,0-5.23,2.35-5.23,5.24v20.26c0,2.89,2.35,5.24,5.23,5.24h32.63c2.89,0,5.24-2.35,5.24-5.24v-20.26c0-2.89-2.35-5.24-5.24-5.24h-32.63Z"/>
              <g>
                <polygon class="cls-22" points="1803.04 77.54 1794.25 86.06 1812.29 86.06 1803.04 77.54"/>
                <polygon class="cls-22" points="1795.97 86.66 1795.97 99.17 1800.02 99.17 1800.02 90.35 1806.98 90.35 1806.98 99.17 1810.58 99.17 1810.58 86.66 1795.97 86.66"/>
              </g>
              <g>
                <rect class="cls-22" x="1843.72" y="82.16" width="12.43" height="1.02"/>
                <g>
                  <g>
                    <path class="cls-22" d="m1844.44,96.3c-1.28,0-2.32-1.05-2.32-2.33v-12.34c0-1.29,1.04-2.33,2.32-2.33h10.98c1.29,0,2.35,1.04,2.35,2.33v.53h1.01v-1.35c0-1.46-1.18-2.64-2.64-2.64h-12.41c-1.48,0-2.66,1.18-2.66,2.64v13.96c0,1.46,1.18,2.64,2.66,2.64h5.42v-1.11h-4.72Z"/>
                    <path class="cls-22" d="m1843.72,85.74h5.44v-1h-5.44v1Z"/>
                    <rect class="cls-22" x="1843.72" y="87.29" width="5.44" height="1.01"/>
                    <rect class="cls-22" x="1843.72" y="89.85" width="5.44" height="1.01"/>
                    <rect class="cls-22" x="1843.72" y="92.42" width="5.44" height="1"/>
                    <path class="cls-22" d="m1864.21,82.16h-12.41c-1.43,0-2.6,1.15-2.65,2.57v14.03c0,1.47,1.18,2.65,2.65,2.65h12.41c1.46,0,2.65-1.18,2.65-2.65v-13.95c0-1.47-1.18-2.65-2.65-2.65Zm1.63,15.8c0,1.29-1.06,2.33-2.35,2.33h-10.96c-1.3,0-2.34-1.05-2.34-2.33v-12.33c0-.32.07-.62.18-.89.35-.86,1.17-1.44,2.16-1.44h10.96c1.29,0,2.35,1.04,2.35,2.33v12.33Z"/>
                  </g>
                  <rect class="cls-22" x="1851.79" y="86.16" width="12.43" height="1.01"/>
                  <rect class="cls-22" x="1851.79" y="88.72" width="12.43" height="1.01"/>
                  <rect class="cls-22" x="1851.79" y="91.28" width="12.43" height="1.01"/>
                  <rect class="cls-22" x="1851.79" y="93.85" width="12.43" height="1"/>
                  <rect class="cls-22" x="1851.79" y="96.4" width="12.43" height="1.01"/>
                </g>
              </g>
              <g>
                <path class="cls-22" d="m1957.67,83.11c0,3.52-2.8,6.37-6.25,6.37s-6.27-2.86-6.27-6.37,2.81-6.36,6.27-6.36,6.25,2.85,6.25,6.36Z"/>
                <path class="cls-22" d="m1950.52,90.41s-8.96.29-10.06,11.16h21.95s-1.35-11.71-11.89-11.16Z"/>
              </g>
            </g>
            <g>
              <path class="cls-22" d="m1909.17,90.81v-2.9h-2.11c-.18-1.54-.81-2.95-1.74-4.1l1.41-1.41-2.06-2.06-1.57,1.58c-.84-.49-1.78-.84-2.78-1.01v-2.02h-2.9v2.02c-1.11.19-2.14.6-3.06,1.18l-1.73-1.75-2.07,2.06,1.66,1.67c-.82,1.09-1.38,2.41-1.56,3.83h-2.08v2.9h2.27c.21.85.56,1.64,1.01,2.36l-1.75,1.76,2.06,2.05,1.67-1.68c.92.69,1.97,1.2,3.13,1.47v2.74h2.91v-2.58c1.4-.16,2.68-.67,3.77-1.43l1.51,1.48,2.04-2.05-1.49-1.48c.55-.8.96-1.69,1.19-2.64h2.28Zm-10.3,2.93c-2.76,0-4.96-2.17-4.96-4.85s2.2-4.87,4.96-4.87,4.95,2.18,4.95,4.87-2.21,4.85-4.95,4.85Z"/>
              <path class="cls-22" d="m1918.08,84.73v-1.44h-1.03c-.11-.77-.42-1.47-.89-2.03l.7-.71-1.02-1.02-.78.79c-.4-.24-.89-.42-1.37-.51v-1h-1.45v1c-.56.09-1.07.3-1.52.59l-.87-.87-1.03,1.02.84.83c-.42.55-.69,1.19-.76,1.91h-1.06v1.44h1.13c.11.42.28.81.51,1.17l-.87.87,1.03,1.02.83-.83c.45.34.96.59,1.55.73v1.36h1.45v-1.28c.68-.08,1.33-.34,1.88-.71l.73.74,1.02-1.02-.74-.73c.28-.39.49-.84.6-1.31h1.12Zm-5.12,1.46c-1.35,0-2.46-1.08-2.46-2.42s1.11-2.42,2.46-2.42,2.48,1.08,2.48,2.42-1.11,2.42-2.48,2.42Z"/>
            </g>
          </g>
          <g>
            <rect class="cls-15" x="1656.75" y="116.3" width="333.54" height="87.41"/>
            <rect class="cls-22" x="1656.75" y="197.69" width="333.61" height="12.92"/>
            <rect class="cls-35" x="1656.75" y="116.27" width="333.61" height="6.51"/>
            <g>
              <rect class="cls-10" x="1681.3" y="219.72" width="136.63" height="106.19"/>
              <rect class="cls-10" x="1826.9" y="219.72" width="136.64" height="106.19"/>
            </g>
            <g class="cls-46">
              <rect class="cls-44" x="1742.62" y="335.73" width="76.88" height="68.76"/>
              <rect class="cls-44" x="1824.54" y="335.73" width="76.89" height="68.76"/>
            </g>
            <path class="cls-22" d="m1876.41,164.42v-7.97h-5.77c-.52-4.23-2.24-8.09-4.82-11.24l3.87-3.88-5.64-5.63-4.32,4.32c-2.31-1.36-4.88-2.31-7.63-2.79v-5.53h-7.98v5.53c-3.06.52-5.9,1.66-8.41,3.25l-4.79-4.79-5.65,5.63,4.59,4.59c-2.28,3.02-3.8,6.61-4.29,10.53h-5.77v7.97h6.26c.58,2.32,1.53,4.5,2.79,6.48l-4.82,4.82,5.64,5.64,4.59-4.59c2.51,1.89,5.43,3.28,8.61,4.02v7.52h7.98v-7.08c3.83-.45,7.37-1.84,10.38-3.94l4.06,4.06,5.65-5.64-4.06-4.06c1.5-2.17,2.61-4.61,3.26-7.24h6.26Zm-28.3,8.07c-7.52,0-13.63-5.97-13.63-13.36s6.11-13.36,13.63-13.36,13.63,5.98,13.63,13.36-6.1,13.36-13.63,13.36Z"/>
            <path class="cls-22" d="m1911.87,170.43v-5.28h-3.82c-.35-2.8-1.49-5.36-3.2-7.45l2.57-2.57-3.74-3.74-2.87,2.87c-1.53-.9-3.23-1.54-5.06-1.85v-3.66h-5.28v3.66c-2.03.35-3.92,1.1-5.57,2.16l-3.18-3.18-3.74,3.74,3.04,3.04c-1.51,2-2.52,4.38-2.84,6.97h-3.82v5.28h4.14c.39,1.54,1.01,2.98,1.84,4.29l-3.19,3.19,3.74,3.74,3.04-3.04c1.67,1.26,3.6,2.18,5.71,2.67v4.98h5.29v-4.69c2.54-.3,4.89-1.23,6.88-2.61l2.69,2.69,3.74-3.74-2.69-2.68c1-1.43,1.73-3.06,2.16-4.8h4.15Zm-18.76,5.36c-4.99,0-9.03-3.96-9.03-8.86s4.04-8.86,9.03-8.86,9.03,3.96,9.03,8.86-4.05,8.86-9.03,8.86Z"/>
            <rect class="cls-22" x="1741.59" y="408.6" width="159.84" height="12.72"/>
            <rect class="cls-22" x="1741.59" y="427.81" width="159.84" height="12.73"/>
          </g>
        </g>
      </g>
      <g>
        <path class="cls-2" d="m0,37.88C0,23.63,12.84,12.08,28.68,12.08h802.48c15.84,0,28.68,11.54,28.68,25.79v534.88c0,14.25-12.85,25.79-28.68,25.79H28.68c-15.84,0-28.68-11.55-28.68-25.79V37.88Z"/>
        <path class="cls-38" d="m0,518.07v108.76c0,7.13,12.84,12.9,28.68,12.9h802.48c15.84,0,28.68-5.77,28.68-12.9v-108.76H0Z"/>
        <path class="cls-29" d="m31.59,65.02c0-12.76,11.82-23.12,26.42-23.12h743.86c14.59,0,26.39,10.35,26.39,23.12v479.42c0,12.76-11.8,23.12-26.39,23.12H58c-14.6,0-26.42-10.36-26.42-23.12V65.02Z"/>
        <path class="cls-3" d="m39.14,74.56c0-12.37,11.59-22.39,25.85-22.39h729.86c14.29,0,25.87,10.02,25.87,22.39v464.38c0,12.37-11.58,22.39-25.87,22.39H64.99c-14.26,0-25.85-10.02-25.85-22.39V74.56Z"/>
        <g>
          <rect class="cls-22" x="104.7" y="116.23" width="650.31" height="170.41"/>
          <rect class="cls-5" x="104.7" y="274.91" width="650.44" height="25.19"/>
          <rect class="cls-5" x="104.7" y="116.17" width="650.44" height="12.7"/>
          <g>
            <rect class="cls-23" x="162.06" y="330.78" width="259.29" height="201.51"/>
            <rect class="cls-6" x="438.36" y="330.78" width="259.29" height="201.51"/>
          </g>
        </g>
        <path class="cls-29" d="m460.81,30.14c0,2.71-2.19,4.89-4.91,4.89h-51.95c-2.7,0-4.88-2.19-4.88-4.89h0c0-2.69,2.19-4.88,4.88-4.88h51.95c2.72,0,4.91,2.19,4.91,4.88h0Z"/>
        <path class="cls-21" d="m468.42,603.89c0,2.95-2.39,5.34-5.34,5.34h-66.32c-2.95,0-5.34-2.39-5.34-5.34h0c0-2.94,2.39-5.33,5.34-5.33h66.32c2.95,0,5.34,2.39,5.34,5.33h0Z"/>
      </g>
      <g>
        <g>
          <g>
            <path class="cls-17" d="m26.33,1379.19c-9.8,0-17.74-9.2-17.74-20.55v-587.18c0-11.35,7.94-20.55,17.74-20.55h367.73c9.79,0,17.73,9.19,17.73,20.55v587.18c0,11.35-7.94,20.55-17.73,20.55H26.33Z"/>
            <path class="cls-9" d="m51.43,1315.94c-8.44,0-15.3-7.67-15.3-17.15v-500.57c0-9.48,6.86-17.15,15.3-17.15h317.52c8.45,0,15.29,7.67,15.29,17.15v500.57c0,9.48-6.84,17.15-15.29,17.15H51.43Z"/>
            <path class="cls-29" d="m53.03,1311.2c-8.36,0-15.16-7.61-15.16-16.98v-496.17c0-9.38,6.79-16.98,15.16-16.98h314.3c8.39,0,15.16,7.6,15.16,16.98v496.17c0,9.37-6.77,16.98-15.16,16.98H53.03Z"/>
            <path class="cls-36" d="m59.19,1306.45c-8.11,0-14.68-7.45-14.68-16.63v-487.15c0-9.18,6.56-16.63,14.68-16.63h304.47c8.1,0,14.67,7.45,14.67,16.63v487.15c0,9.19-6.58,16.63-14.67,16.63H59.19Z"/>
            <path class="cls-18" d="m252.82,1342.79c0,3.26-2.64,5.91-5.91,5.91h-73.46c-3.26,0-5.91-2.65-5.91-5.91h0c0-3.26,2.65-5.91,5.91-5.91h73.46c3.26,0,5.91,2.64,5.91,5.91h0Z"/>
          </g>
          <path class="cls-29" d="m250.03,765.61c0,3.21-2.6,5.81-5.81,5.81h-61.78c-3.21,0-5.81-2.6-5.81-5.81h0c0-3.21,2.61-5.82,5.81-5.82h61.78c3.21,0,5.81,2.61,5.81,5.82h0Z"/>
        </g>
        <g>
          <rect class="cls-22" x="44.51" y="846.78" width="334.03" height="87.54"/>
          <rect class="cls-37" x="44.51" y="928.3" width="334.1" height="12.94"/>
          <rect class="cls-31" x="43.14" y="1194.68" width="334.1" height="74.38"/>
          <rect class="cls-19" x="44.51" y="846.76" width="334.1" height="6.52"/>
          <g>
            <g>
              <path class="cls-22" d="m260.39,841.55h-22.25c-2.43,0-4.38-1.96-4.38-4.38v-13.81c0-2.42,1.96-4.39,4.38-4.39h22.25c2.42,0,4.38,1.97,4.38,4.39v13.81c0,2.42-1.96,4.38-4.38,4.38Zm-22.25-21.77c-1.97,0-3.56,1.6-3.56,3.58v13.81c0,1.96,1.59,3.56,3.56,3.56h22.25c1.96,0,3.57-1.6,3.57-3.56v-13.81c0-1.97-1.6-3.58-3.57-3.58h-22.25Z"/>
              <path class="cls-22" d="m294.6,841.55h-22.26c-2.42,0-4.38-1.96-4.38-4.38v-13.81c0-2.42,1.96-4.39,4.38-4.39h22.26c2.42,0,4.38,1.97,4.38,4.39v13.81c0,2.42-1.96,4.38-4.38,4.38Zm-22.26-21.77c-1.96,0-3.56,1.6-3.56,3.58v13.81c0,1.96,1.6,3.56,3.56,3.56h22.26c1.96,0,3.56-1.6,3.56-3.56v-13.81c0-1.97-1.6-3.58-3.56-3.58h-22.26Z"/>
              <path class="cls-22" d="m328.24,841.55h-22.24c-2.42,0-4.39-1.96-4.39-4.38v-13.81c0-2.42,1.97-4.39,4.39-4.39h22.24c2.42,0,4.4,1.97,4.4,4.39v13.81c0,2.42-1.98,4.38-4.4,4.38Zm-22.24-21.77c-1.97,0-3.57,1.6-3.57,3.58v13.81c0,1.96,1.6,3.56,3.57,3.56h22.24c1.97,0,3.57-1.6,3.57-3.56v-13.81c0-1.97-1.6-3.58-3.57-3.58h-22.24Z"/>
              <path class="cls-22" d="m361.04,841.55h-22.24c-2.42,0-4.38-1.96-4.38-4.38v-13.81c0-2.42,1.96-4.39,4.38-4.39h22.24c2.43,0,4.39,1.97,4.39,4.39v13.81c0,2.42-1.96,4.38-4.39,4.38Zm-22.24-21.77c-1.96,0-3.57,1.6-3.57,3.58v13.81c0,1.96,1.6,3.56,3.57,3.56h22.24c1.98,0,3.58-1.6,3.58-3.56v-13.81c0-1.97-1.6-3.58-3.58-3.58h-22.24Z"/>
              <g>
                <polygon class="cls-22" points="248.75 822.33 242.75 828.15 255.05 828.15 248.75 822.33"/>
                <polygon class="cls-22" points="243.93 828.55 243.93 837.09 246.69 837.09 246.69 831.06 251.43 831.06 251.43 837.09 253.89 837.09 253.89 828.55 243.93 828.55"/>
              </g>
              <g>
                <rect class="cls-22" x="276.48" y="825.49" width="8.47" height=".69"/>
                <g>
                  <g>
                    <path class="cls-22" d="m276.98,835.12c-.87,0-1.58-.71-1.58-1.59v-8.41c0-.88.71-1.59,1.58-1.59h7.48c.88,0,1.6.71,1.6,1.59v.37h.69v-.92c0-1-.81-1.8-1.81-1.8h-8.46c-1,0-1.81.81-1.81,1.8v9.52c0,.99.8,1.8,1.81,1.8h3.7v-.76h-3.21Z"/>
                    <path class="cls-22" d="m276.48,827.92h3.71v-.69h-3.71v.69Z"/>
                    <rect class="cls-22" x="276.48" y="828.98" width="3.71" height=".69"/>
                    <rect class="cls-22" x="276.48" y="830.73" width="3.71" height=".68"/>
                    <rect class="cls-22" x="276.48" y="832.48" width="3.71" height=".68"/>
                    <path class="cls-22" d="m290.46,825.49h-8.46c-.98,0-1.77.78-1.81,1.75v9.57c0,1,.81,1.81,1.81,1.81h8.46c1,0,1.8-.81,1.8-1.81v-9.52c0-1-.8-1.8-1.8-1.8Zm1.11,10.77c0,.89-.72,1.6-1.6,1.6h-7.48c-.88,0-1.59-.71-1.59-1.6v-8.41c0-.21.05-.42.13-.61.24-.58.8-.98,1.47-.98h7.48c.88,0,1.6.71,1.6,1.59v8.41Z"/>
                  </g>
                  <rect class="cls-22" x="281.99" y="828.21" width="8.47" height=".69"/>
                  <rect class="cls-22" x="281.99" y="829.96" width="8.47" height=".69"/>
                  <rect class="cls-22" x="281.99" y="831.7" width="8.47" height=".69"/>
                  <rect class="cls-22" x="281.99" y="833.46" width="8.47" height=".68"/>
                  <rect class="cls-22" x="281.99" y="835.2" width="8.47" height=".68"/>
                </g>
              </g>
              <g>
                <path class="cls-22" d="m354.18,826.13c0,2.4-1.91,4.34-4.26,4.34s-4.28-1.94-4.28-4.34,1.92-4.34,4.28-4.34,4.26,1.94,4.26,4.34Z"/>
                <path class="cls-22" d="m349.3,831.11s-6.11.19-6.86,7.6h14.97s-.92-7.98-8.11-7.6Z"/>
              </g>
            </g>
            <g>
              <path class="cls-22" d="m321.11,831.39v-1.98h-1.44c-.13-1.05-.55-2-1.19-2.79l.96-.96-1.4-1.41-1.07,1.07c-.57-.33-1.22-.57-1.9-.69v-1.37h-1.97v1.37c-.76.13-1.46.41-2.08.8l-1.18-1.19-1.41,1.41,1.13,1.13c-.56.75-.94,1.64-1.06,2.61h-1.42v1.98h1.55c.15.57.38,1.11.69,1.6l-1.19,1.19,1.4,1.4,1.14-1.15c.63.47,1.35.82,2.13,1v1.86h1.98v-1.76c.96-.11,1.83-.45,2.57-.97l1.02,1.01,1.39-1.4-1.02-1c.38-.54.66-1.15.82-1.79h1.55Zm-7.02,2c-1.89,0-3.38-1.49-3.38-3.32s1.5-3.31,3.38-3.31,3.38,1.48,3.38,3.31-1.51,3.32-3.38,3.32Z"/>
              <path class="cls-22" d="m327.19,827.24v-.98h-.7c-.08-.52-.28-1-.61-1.39l.47-.48-.69-.69-.53.53c-.27-.16-.61-.28-.94-.34v-.68h-.99v.68c-.38.07-.73.21-1.03.4l-.59-.59-.7.69.57.57c-.29.37-.48.81-.52,1.3h-.72v.98h.77c.08.29.19.56.35.8l-.6.59.7.7.57-.56c.3.23.65.4,1.05.49v.93h.98v-.87c.47-.05.9-.23,1.28-.48l.5.5.69-.7-.5-.49c.19-.27.33-.57.41-.9h.77Zm-3.49.99c-.92,0-1.68-.74-1.68-1.64s.76-1.65,1.68-1.65,1.69.74,1.69,1.65-.76,1.64-1.69,1.64Z"/>
            </g>
          </g>
          <g>
            <rect class="cls-10" x="73.96" y="956.99" width="133.19" height="103.51"/>
            <rect class="cls-10" x="215.9" y="956.99" width="133.19" height="103.51"/>
          </g>
          <g>
            <rect class="cls-10" x="75.76" y="1078.52" width="133.19" height="103.51"/>
            <rect class="cls-10" x="217.69" y="1078.52" width="133.2" height="103.51"/>
          </g>
          <g>
            <path class="cls-32" d="m231.06,878.93c0,6.76-5.39,12.24-12.04,12.24s-12.03-5.48-12.03-12.24,5.39-12.25,12.03-12.25,12.04,5.48,12.04,12.25Z"/>
            <path class="cls-32" d="m217.29,892.97s-17.21.54-19.34,21.45h42.23s-2.6-22.53-22.89-21.45Z"/>
            <g>
              <path class="cls-32" d="m229.42,881.11c.14-.7.21-1.43.21-2.18,0-.69-.07-1.35-.19-2.01-.12.71-.2,1.43-.2,2.18,0,.69.07,1.36.18,2.01Z"/>
              <path class="cls-32" d="m241.28,866.86c-4.36,0-8.17,2.37-10.28,5.9.93,1.86,1.47,3.96,1.47,6.17s-.57,4.47-1.55,6.37c2.09,3.61,5.95,6.05,10.37,6.05,6.64,0,12.03-5.48,12.03-12.25s-5.39-12.24-12.03-12.24Z"/>
            </g>
            <path class="cls-32" d="m241.59,914.09l.04.33h20.81s-2.59-22.53-22.88-21.45c0,0-3.84.12-8.12,2.45,8.6,6.49,10.13,18.51,10.15,18.67Z"/>
          </g>
        </g>
      </g>
      <g>
        <path class="cls-42" d="m1089.37,628.28c-11.56,0-20.96-9.39-20.96-20.96V20.95c0-11.58,9.4-20.95,20.96-20.95h386.8c11.58,0,20.94,9.36,20.94,20.95v586.38c0,11.57-9.36,20.96-20.94,20.96h-386.8Z"/>
        <path class="cls-41" d="m1125.58,579.77c-9.38,0-16.98-8.04-16.98-17.95V59.06c0-9.92,7.61-17.97,16.98-17.97h313.43c9.37,0,16.98,8.05,16.98,17.97v502.76c0,9.91-7.61,17.95-16.98,17.95h-313.43Z"/>
        <path class="cls-33" d="m1323.87,21.51c0,3.38-2.74,6.12-6.13,6.12h-69.95c-3.39,0-6.12-2.74-6.12-6.12h0c0-3.39,2.73-6.14,6.12-6.14h69.95c3.39,0,6.13,2.74,6.13,6.14h0Z"/>
        <path class="cls-40" d="m1320.88,606c0,6.5-5.28,11.78-11.78,11.78h-52.66c-6.51,0-11.78-5.28-11.78-11.78h0c0-6.51,5.28-11.78,11.78-11.78h52.66c6.51,0,11.78,5.27,11.78,11.78h0Z"/>
      </g>
    </g>
  </g>
</svg>