<?xml version="1.0" encoding="UTF-8"?>
<svg id="Layer_2" data-name="Layer 2" xmlns="http://www.w3.org/2000/svg" viewBox="0 0 13.06 13.06">
  <defs>
    <style>
      .cls-1 {
        fill: #7dd8b7;
        stroke-width: 0px;
      }
    </style>
  </defs>
  <g id="OBJECTS">
    <g>
      <path class="cls-1" d="m5.72,7.75l2.12-1.22-2.12-1.22v2.45Z"/>
      <path class="cls-1" d="m6.53,0C2.92,0,0,2.92,0,6.53s2.92,6.53,6.53,6.53,6.53-2.92,6.53-6.53S10.14,0,6.53,0h0Zm4.08,6.54s0,1.32-.17,1.96c-.09.35-.37.63-.72.72-.64.17-3.19.17-3.19.17,0,0-2.55,0-3.19-.17-.35-.09-.63-.37-.72-.72-.17-.63-.17-1.96-.17-1.96,0,0,0-1.32.17-1.96.09-.35.38-.63.72-.73.64-.17,3.19-.17,3.19-.17,0,0,2.55,0,3.19.17.35.09.63.37.72.72.17.64.17,1.97.17,1.97h0Z"/>
    </g>
  </g>
</svg>