<?xml version="1.0" encoding="UTF-8"?>
<svg id="Layer_2" data-name="Layer 2" xmlns="http://www.w3.org/2000/svg" viewBox="0 0 13.06 13.06">
  <defs>
    <style>
      .cls-1 {
        fill: #7dd8b7;
        stroke-width: 0px;
      }
    </style>
  </defs>
  <g id="OBJECTS">
    <g>
      <path class="cls-1" d="m6.53,5.4c-.62,0-1.13.51-1.13,1.13s.51,1.13,1.13,1.13,1.13-.51,1.13-1.13-.5-1.13-1.13-1.13Z"/>
      <path class="cls-1" d="m9.38,4.32h0c-.05-.15-.14-.28-.25-.39-.11-.11-.24-.2-.39-.25-.13-.05-.31-.11-.67-.12-.41-.02-.53-.02-1.54-.02s-1.15,0-1.54.02c-.35.02-.54.07-.66.12-.15.05-.28.14-.39.25-.11.11-.2.24-.25.39-.05.13-.11.31-.12.67-.02.41-.02.53-.02,1.54s0,1.14.02,1.54c.02.35.07.54.12.67.05.15.14.28.25.39.11.11.24.2.39.25.13.05.31.11.67.12.4.02.52.02,1.54.02s1.15,0,1.54-.02c.35-.02.54-.07.66-.12.29-.11.53-.35.64-.64.05-.13.11-.31.12-.67.02-.4.02-.52.02-1.54s0-1.14-.02-1.54c-.02-.35-.07-.54-.12-.66Zm-2.85,4.33c-1.17,0-2.12-.95-2.12-2.12s.95-2.12,2.12-2.12,2.12.95,2.12,2.12-.95,2.12-2.12,2.12Zm2.05-3.56c-.34,0-.61-.28-.61-.61s.28-.61.61-.61.61.28.61.61c0,.34-.28.61-.61.61Z"/>
      <path class="cls-1" d="m6.53,0C2.93,0,0,2.93,0,6.53s2.93,6.53,6.53,6.53,6.53-2.93,6.53-6.53S10.13,0,6.53,0Zm3.97,8.12c-.02.39-.08.69-.19.98-.21.55-.66,1-1.21,1.21-.29.11-.59.17-.98.19-.41.02-.54.02-1.59.02s-1.18,0-1.59-.02c-.39-.02-.69-.08-.98-.19-.27-.1-.53-.27-.73-.48-.21-.21-.37-.45-.48-.73-.11-.29-.17-.59-.19-.98-.02-.41-.02-.55-.02-1.59s0-1.18.02-1.59c.02-.39.08-.69.19-.98.1-.28.27-.52.48-.73.2-.21.46-.37.73-.48.29-.11.59-.17.98-.19.41-.02.54-.02,1.59-.02s1.18,0,1.59.02c.39.02.69.08.98.19.27.1.53.27.73.48.21.2.37.46.48.73.11.29.17.59.19.98.02.41.02.55.02,1.59s0,1.18-.02,1.59Z"/>
    </g>
  </g>
</svg>