<?xml version="1.0" encoding="UTF-8"?>
<svg id="Layer_2" data-name="Layer 2" xmlns="http://www.w3.org/2000/svg" viewBox="0 0 13.06 13.06">
  <defs>
    <style>
      .cls-1 {
        fill: #7dd8b7;
        stroke-width: 0px;
      }
    </style>
  </defs>
  <g id="OBJECTS">
    <path class="cls-1" d="m6.53,0C2.92,0,0,2.92,0,6.53s2.92,6.53,6.53,6.53,6.53-2.92,6.53-6.53S10.14,0,6.53,0h0Zm2.98,5.09c0,.06,0,.13,0,.19,0,1.98-1.51,4.26-4.26,4.26h0,0c-.85,0-1.63-.25-2.3-.67.12.01.24.02.36.02.7,0,1.35-.24,1.86-.64-.66-.01-1.21-.45-1.4-1.04.09.02.19.03.28.03.14,0,.27-.02.4-.05-.69-.14-1.2-.74-1.2-1.47,0,0,0-.01,0-.02.2.11.43.18.68.19-.4-.27-.67-.73-.67-1.25,0-.27.07-.53.2-.75.74.91,1.84,1.5,3.09,1.57-.03-.11-.04-.22-.04-.34,0-.83.67-1.5,1.5-1.5.43,0,.82.18,1.09.47.34-.07.66-.19.95-.36-.11.35-.35.64-.66.83.3-.04.59-.12.86-.24-.2.3-.45.56-.75.78h0Z"/>
  </g>
</svg>