<?xml version="1.0" encoding="UTF-8"?>
<svg id="Layer_2" data-name="Layer 2" xmlns="http://www.w3.org/2000/svg" xmlns:xlink="http://www.w3.org/1999/xlink" viewBox="0 0 109.77 7.38">
  <defs>
    <style>
      .cls-1 {
        fill: #def23a;
        stroke: #def23a;
        stroke-miterlimit: 10;
      }

      .cls-2 {
        filter: url(#drop-shadow-1);
      }
    </style>
    <filter id="drop-shadow-1" filterUnits="userSpaceOnUse">
      <feOffset dx="2" dy="1"/>
      <feGaussianBlur result="blur" stdDeviation="9"/>
      <feFlood flood-color="#000" flood-opacity=".22"/>
      <feComposite in2="blur" operator="in"/>
      <feComposite in="SourceGraphic"/>
    </filter>
  </defs>
  <g id="OBJECTS">
    <g class="cls-2">
      <path class="cls-1" d="m3.98.5v2.82h2.71v.72h-2.71v2.84h-.77v-2.84H.5v-.72h2.71V.5h.77Z"/>
      <path class="cls-1" d="m24.5.5v2.82h2.71v.72h-2.71v2.84h-.77v-2.84h-2.71v-.72h2.71V.5h.77Z"/>
      <path class="cls-1" d="m45.01.5v2.82h2.71v.72h-2.71v2.84h-.77v-2.84h-2.71v-.72h2.71V.5h.77Z"/>
      <path class="cls-1" d="m65.53.5v2.82h2.71v.72h-2.71v2.84h-.77v-2.84h-2.71v-.72h2.71V.5h.77Z"/>
      <path class="cls-1" d="m86.05.5v2.82h2.71v.72h-2.71v2.84h-.77v-2.84h-2.71v-.72h2.71V.5h.77Z"/>
      <path class="cls-1" d="m106.56.5v2.82h2.71v.72h-2.71v2.84h-.77v-2.84h-2.71v-.72h2.71V.5h.77Z"/>
    </g>
  </g>
</svg>